<?xml version="1.0" encoding="UTF-8" standalone="no"?>
<svg
   xmlns:dc="http://purl.org/dc/elements/1.1/"
   xmlns:cc="http://creativecommons.org/ns#"
   xmlns:rdf="http://www.w3.org/1999/02/22-rdf-syntax-ns#"
   xmlns:svg="http://www.w3.org/2000/svg"
   xmlns="http://www.w3.org/2000/svg"
   xmlns:sodipodi="http://sodipodi.sourceforge.net/DTD/sodipodi-0.dtd"
   xmlns:inkscape="http://www.inkscape.org/namespaces/inkscape"
   sodipodi:docname="Elephant.svg"
   inkscape:version="1.0 (4035a4fb49, 2020-05-01)"
   id="svg3544"
   version="1.1"
   viewBox="0 0 118.19 123.815"
   height="123.815mm"
   width="118.19mm">
  <defs
     id="defs3538">
    <clipPath
       id="clipPath4903"
       clipPathUnits="userSpaceOnUse">
      <rect
         y="106.58929"
         x="24.190477"
         height="173.1131"
         width="153.45833"
         id="rect4905"
         style="opacity:0.999;fill:#1a1a1a;fill-opacity:1;fill-rule:evenodd;stroke:#020202;stroke-width:2;stroke-linecap:round;stroke-miterlimit:4;stroke-dasharray:none;stroke-opacity:0;paint-order:markers stroke fill" />
    </clipPath>
  </defs>
  <sodipodi:namedview
     inkscape:snap-global="false"
     inkscape:window-maximized="1"
     inkscape:window-y="-8"
     inkscape:window-x="-8"
     inkscape:window-height="705"
     inkscape:window-width="1366"
     showgrid="false"
     inkscape:document-rotation="0"
     inkscape:current-layer="layer1"
     inkscape:document-units="mm"
     inkscape:cy="583.45328"
     inkscape:cx="356.21919"
     inkscape:zoom="0.35"
     inkscape:pageshadow="2"
     inkscape:pageopacity="0.0"
     borderopacity="1.0"
     bordercolor="#666666"
     pagecolor="#ffffff"
     id="base" />
  <metadata
     id="metadata3541">
    <rdf:RDF>
      <cc:Work
         rdf:about="">
        <dc:format>image/svg+xml</dc:format>
        <dc:type
           rdf:resource="http://purl.org/dc/dcmitype/StillImage" />
        <dc:title></dc:title>
      </cc:Work>
    </rdf:RDF>
  </metadata>
  <g
     id="layer1"
     inkscape:groupmode="layer"
     inkscape:label="Layer 1">
    <g
       transform="matrix(1.0131133,0,0,0.96073219,-43.24054,-129.19226)"
       clip-path="url(#clipPath4903)"
       style="stroke:#020202;stroke-width:2;stroke-miterlimit:4;stroke-dasharray:none;stroke-opacity:0.991936"
       id="g4891">
      <path
         style="opacity:0.999;fill:#ffffff;fill-opacity:1;fill-rule:evenodd;stroke:#020202;stroke-width:7.55906;stroke-linecap:round;stroke-miterlimit:4;stroke-dasharray:none;stroke-opacity:0.991936;paint-order:markers stroke fill"
         d="m 211.1285,904.67513 c -16.00739,-1.47453 -31.62349,-8.88626 -43.75045,-20.76489 -4.13532,-4.05063 -7.30129,-7.58226 -7.03549,-7.84807 0.2658,-0.2658 4.76151,0.85803 9.99046,2.49739 14.86444,4.66025 23.94534,6.01426 40.28326,6.00644 11.27176,-0.005 16.7861,-0.48605 23.19049,-2.0214 22.71017,-5.44439 39.93329,-18.30851 57.1363,-42.67566 6.81965,-9.65967 7.06556,-9.87973 13.13199,-11.75179 13.25976,-4.09188 30.2647,-5.22351 33.27393,-2.21428 1.27808,1.27808 -5.67474,13.11932 -13.98637,23.81994 -3.45236,4.44468 -12.17479,13.99062 -19.38316,21.21321 l -13.10615,13.13198 -13.03646,5.91959 c -27.20394,12.35275 -46.33274,16.56444 -66.70835,14.68754 z"
         id="path4851"
         transform="scale(0.26458333)" />
      <path
         style="opacity:0.999;fill:#ffffff;fill-opacity:1;fill-rule:evenodd;stroke:#020202;stroke-width:7.55906;stroke-linecap:round;stroke-miterlimit:4;stroke-dasharray:none;stroke-opacity:0.991936;paint-order:markers stroke fill"
         d="m 207.72677,852.60234 c -6.79664,-1.02509 -16.36132,-4.00277 -22.78907,-7.09471 -8.13441,-3.9129 -18.84537,-12.12122 -14.58658,-11.1784 1.38896,0.30749 5.93465,1.35892 10.10153,2.33651 9.24103,2.16804 31.98818,2.49886 40.91118,0.59499 11.15361,-2.37982 23.02668,-6.5425 32.6817,-11.45817 5.26461,-2.68038 9.62884,-4.7588 9.69827,-4.61871 0.26045,0.52543 3.81906,18.50007 3.95023,19.95267 0.18697,2.07063 -19.23747,8.53907 -31.72287,10.56388 -8.75292,1.41949 -22.00663,1.84273 -28.24439,0.90194 z"
         id="path4853"
         transform="scale(0.26458333)" />
      <path
         style="opacity:0.999;fill:#f7f7f7;fill-opacity:1;fill-rule:evenodd;stroke:#020202;stroke-width:7.55906;stroke-linecap:round;stroke-miterlimit:4;stroke-dasharray:none;stroke-opacity:0.991936;paint-order:markers stroke fill"
         d="m 197.83369,849.66373 c -9.52099,-2.81492 -15.65884,-5.75032 -22.93365,-10.96795 -5.72863,-4.10867 -5.52972,-4.21788 3.5323,-1.93945 9.76148,2.45429 38.59184,2.4312 47.47717,-0.038 10.47555,-2.91115 18.02096,-5.69131 28.02767,-10.32698 10.67207,-4.94392 9.13934,-5.87365 11.81871,7.16905 1.74147,8.47722 1.78052,8.42071 -8.29561,12.0048 -19.90778,7.08123 -43.94884,8.73374 -59.62659,4.09856 z"
         id="path4855"
         transform="scale(0.26458333)" />
      <g
         id="g4878"
         style="stroke:#020202;stroke-width:2;stroke-miterlimit:4;stroke-dasharray:none;stroke-opacity:0.991936"
         transform="translate(-0.70731453,1.0690781)">
        <path
           transform="scale(0.26458333)"
           id="path4849"
           d="m 276.73626,846.98771 c -1.18477,-1.53219 -4.35973,-9.48641 -4.35973,-10.9224 0,-0.54434 0.93851,-0.98971 2.08558,-0.98971 3.35583,0 11.48923,-3.91035 12.92916,-6.21605 1.10316,-1.76644 1.08735,-2.35845 -0.0946,-3.54036 -1.21888,-1.21889 -2.05134,-1.06779 -5.89686,1.0704 -2.46269,1.36931 -5.81301,2.63377 -7.44517,2.80992 -2.66326,0.28741 -3.04617,-0.0423 -3.73437,-3.21528 -0.42176,-1.94454 -1.07793,-7.25047 -1.45816,-11.79094 l -0.69133,-8.25543 3.99227,0.53549 c 2.94965,0.39562 4.44435,0.0834 5.72327,-1.19553 2.23357,-2.23357 0.54421,-4.5474 -3.32012,-4.5474 -4.9506,0 -6.34532,-1.93411 -5.57612,-7.73262 l 0.68196,-5.14091 3.40673,1.04556 c 6.64045,2.03801 14.8436,-2.45352 11.17719,-6.11993 -1.22892,-1.22892 -1.85653,-1.20453 -4.52603,0.17593 -3.7326,1.9302 -7.49811,0.87412 -9.39614,-2.63527 -2.08715,-3.85904 -2.38575,-33.52371 -0.48292,-47.97504 1.86647,-14.17519 6.33064,-32.21409 10.32572,-41.72435 2.61522,-6.22554 2.7361,-7.22071 2.33126,-19.1929 -1.00191,-29.62946 -0.3275,-32.71324 9.19484,-42.04353 2.7665,-2.71071 5.29597,-5.75831 5.62105,-6.77245 0.32508,-1.01415 0.84042,-1.59453 1.14521,-1.28974 0.45979,0.45979 2.42316,-0.8473 9.35249,-6.22637 0.27207,-0.2112 0.757,-3.95406 1.07762,-8.31748 0.32062,-4.36342 1.17646,-8.64862 1.90186,-9.52268 0.89665,-1.08039 3.0363,-1.58919 6.68299,-1.58919 4.26201,0 5.48169,-0.37055 5.93651,-1.80354 0.31483,-0.99195 2.37812,-3.83301 4.58508,-6.31346 2.20697,-2.48045 4.02557,-4.81149 4.04134,-5.18009 0.0158,-0.36861 2.85841,-3.03467 6.31698,-5.92458 l 6.28832,-5.25439 6.59113,0.74626 c 3.62512,0.41044 7.95484,0.6757 9.62159,0.58947 4.0913,-0.21166 13.63706,-3.27612 13.63706,-4.37788 0,-0.48691 0.34092,-0.6867 0.75761,-0.44397 1.99605,1.16273 17.38566,-2.64692 24.10543,-5.96722 7.49675,-3.70422 18.64224,-5.78674 19.91847,-3.72175 0.33657,0.54457 -0.80671,3.21582 -2.54061,5.93611 -14.01854,21.99359 -16.09647,38.5796 -7.86522,62.7802 1.64998,4.85108 2.99996,9.17164 2.99996,9.60126 0,2.00102 -26.71279,-16.53489 -27.7614,-19.26354 -0.36036,-0.93769 -0.91467,-5.37651 -1.23183,-9.86402 -0.4731,-6.69431 -0.26424,-8.63588 1.16339,-10.81472 2.88257,-4.39935 -0.164,-6.46436 -4.42153,-2.99698 -1.92085,1.56435 -2.17387,2.80147 -2.199,10.75137 l -0.0284,8.9836 -4.53816,-4.43791 c -2.496,-2.44086 -6.38506,-6.82441 -8.64236,-9.74122 -4.09622,-5.29301 -6.22328,-6.47475 -7.17765,-3.98771 -2.47273,6.44384 22.04091,29.03459 50.08617,46.15733 9.76626,5.96268 12.75113,8.57127 16.06387,14.03878 3.44763,5.69014 6.78755,8.50432 8.45283,7.12227 1.16221,-0.96455 1.04195,-1.82872 -0.7408,-5.32319 -1.17052,-2.29443 -3.26995,-5.89695 -4.66539,-8.00559 -2.39145,-3.61373 -2.5001,-4.35576 -1.89208,-12.92154 0.85505,-12.04612 2.40058,-17.92181 5.08572,-19.33447 2.9394,-1.54643 3.74508,-3.04147 2.46819,-4.58002 -1.20826,-1.45586 -4.7069,-1.68918 -6.66809,-0.44469 -2.09326,1.32829 -5.00684,10.22594 -5.80719,17.73425 l -0.7429,6.96938 -2.46261,-5.95923 c -6.15486,-14.89407 -8.20492,-32.23646 -5.06293,-42.82979 1.85318,-6.24806 7.97698,-16.9323 14.48495,-25.27203 10.51978,-13.48068 23.49198,-19.01447 56.94787,-24.29331 7.50038,-1.18345 17.85122,-3.49495 23.00187,-5.13666 8.30582,-2.6474 10.1335,-3.69276 16.16242,-9.24427 3.73869,-3.44263 7.97217,-7.55952 9.40775,-9.14865 l 2.61014,-2.88931 3.70333,5.04496 c 2.03684,2.77472 3.70334,5.51185 3.70334,6.08251 0,0.57066 -1.33851,2.16383 -2.97445,3.54039 -1.63594,1.37655 -2.6966,2.78067 -2.35702,3.12025 0.33959,0.33958 0.0918,0.61742 -0.55075,0.61742 -2.1127,0 -15.33099,9.04607 -15.33099,10.49191 0,5.04943 11.76625,-0.35677 22.3672,-10.27699 l 3.67936,-3.4431 5.16282,6.81994 c 5.7612,7.61036 5.72337,7.79238 -2.20918,10.62768 -2.93663,1.04963 -3.76114,1.84806 -3.53553,3.4237 0.43723,3.05357 4.04857,3.0637 10.0919,0.0283 2.95544,-1.48443 5.45674,-2.21276 5.6463,-1.64409 0.18717,0.56152 1.88238,3.04053 3.76712,5.5089 l 3.42681,4.48795 -7.86185,4.03094 c -4.32402,2.21702 -9.71697,5.2586 -11.98434,6.75907 -4.78848,3.16888 -7.25894,7.8181 -5.36617,10.09875 1.59712,1.92441 3.307,1.15178 5.43922,-2.45777 1.80851,-3.06158 18.18922,-12.13031 21.91078,-12.13031 1.19047,0 2.88814,1.93194 4.80077,5.46323 l 2.95901,5.46323 -4.35484,0.65305 c -5.70302,0.85522 -9.4058,3.77205 -7.90527,6.22728 0.59528,0.97402 2.41356,2.1885 4.04061,2.69886 4.41822,1.38585 13.3704,5.63653 13.99321,6.64426 0.29981,0.48511 -1.18821,1.15919 -3.30672,1.49795 -4.30888,0.68902 -7.77899,3.80188 -6.87227,6.16478 0.74838,1.9502 2.47011,1.95936 7.06949,0.0376 1.99454,-0.83337 5.15907,-1.51523 7.03228,-1.51523 4.25456,0 5.75043,2.78344 5.75043,10.70005 0,7.24345 -2.43331,9.85162 -10.71081,11.48055 -8.03351,1.5809 -8.48209,1.76745 -8.48209,3.52734 0,2.4772 4.55243,2.90808 12.2822,1.16247 3.97708,-0.89814 7.37591,-1.48812 7.55295,-1.31106 0.8281,0.8281 2.35028,15.17454 2.3682,22.32008 l 0.02,7.9784 -8.05562,-0.62119 c -5.04077,-0.38872 -9.56234,-1.38989 -12.08158,-2.67511 -2.21428,-1.12963 -4.72593,-2.05389 -5.58144,-2.05389 -2.97121,0 -1.48825,3.55259 2.72968,6.53924 3.86773,2.73868 5.11363,3.03872 14.12057,3.40049 9.83004,0.39482 10.97679,0.90644 9.00425,4.01717 -1.18388,1.86701 -16.33704,3.27994 -16.98783,1.584 -1.15331,-3.00545 -6.38153,-2.53596 -6.38153,0.57305 0,3.92507 3.35716,5.26981 12.96895,5.19485 l 9.09038,-0.0709 -2.28021,7.31126 c -3.33775,10.70213 -6.69512,17.91786 -8.33692,17.91786 -1.98421,0 -6.76654,-2.56333 -8.35647,-4.47907 -2.14767,-2.58779 -5.10604,-1.99932 -5.10604,1.0157 0,1.42863 0.59044,3.18797 1.31209,3.90961 1.87896,1.87896 7.39257,4.60453 9.31461,4.60453 2.11901,0 1.62674,3.9404 -0.67227,5.38099 -1.72927,1.08359 -3.68135,0.26386 -17.61571,-7.39728 -6.368,-3.50115 -9.51131,-3.58386 -9.51131,-0.25028 0,1.9238 5.91765,8.00551 14.89975,15.31283 2.91682,2.37295 5.3033,4.97209 5.3033,5.77587 0,2.45892 -3.99906,9.46214 -5.40318,9.46214 -2.16862,0 -10.12048,-5.71081 -12.57545,-9.03134 -2.62198,-3.54641 -4.83838,-3.9738 -5.74784,-1.10834 -0.98711,3.11009 0.99985,5.67222 9.16465,11.81753 4.17207,3.14016 7.39492,6.20645 7.16189,6.81399 -0.23303,0.60753 -0.99831,3.67254 -1.70059,6.81111 l -1.2769,5.70651 -5.57603,-1.91844 c -6.68066,-2.29848 -8.30198,-2.36924 -10.87506,-0.47462 -1.9399,1.4284 -1.93995,1.48293 -0.005,5.10482 1.07576,2.01355 4.0926,5.83163 6.70409,8.48463 l 4.74815,4.82363 -4.26915,12.77286 -4.26915,12.77284 -4.20271,-3.09071 c -2.31133,-1.69989 -4.20255,-3.70077 -4.20255,-4.44639 0,-0.74564 -0.73002,-2.0857 -1.62225,-2.97794 -2.02715,-2.02715 -4.43867,-0.40778 -4.43867,2.98064 0,3.06861 2.83137,6.4473 8.83753,10.54588 4.73105,3.22844 4.96986,3.60193 4.18605,6.54674 -0.45718,1.71763 -1.18803,5.36385 -1.62411,8.10272 -0.70317,4.41646 -0.96831,4.81639 -2.34383,3.53554 -10.86885,-10.1208 -13.79781,-13.03286 -13.45413,-13.37654 0.22369,-0.22368 -0.28613,-0.9817 -1.13293,-1.68449 -1.89554,-1.57316 -4.5701,0.21421 -4.5701,3.05414 0,2.06181 6.48568,8.86524 13.44761,14.10643 2.57694,1.94002 4.95211,4.31532 5.27812,5.27846 0.32603,0.96315 0.27517,4.97432 -0.11301,8.91374 -0.82511,8.37354 0.34859,8.20297 -15.58226,2.2646 -20.3246,-7.57619 -34.43376,-15.86705 -46.75456,-27.47399 -11.3076,-10.65244 -17.18647,-19.623 -22.90652,-34.95299 -2.03658,-5.45811 -3.09087,-7.07106 -4.62194,-7.07106 -1.82463,0 -1.95673,0.60681 -1.64931,7.57614 0.18381,4.16688 -0.1576,8.85706 -0.75868,10.42262 -1.28641,3.35058 -8.79884,11.42703 -7.68801,8.2652 2.08555,-5.93613 2.93685,-12.65077 1.75391,-13.83371 -1.71913,-1.71913 -2.666,-0.46465 -6.25282,8.28411 -3.82674,9.33393 -9.28558,17.47338 -12.78947,19.06987 -1.45166,0.66143 -2.83885,1.00312 -3.08265,0.75933 -0.24379,-0.2438 0.26951,-2.84345 1.14069,-5.77701 2.26585,-7.62995 2.12032,-12.03812 -0.39742,-12.03812 -1.4836,0 -2.26004,1.07856 -3.09059,4.29315 -0.61006,2.36123 -1.314,5.00651 -1.56431,5.87842 -0.52379,1.82455 -5.48556,8.77036 -5.48556,7.67907 0,-0.39855 -1.02278,-0.0553 -2.27284,0.76284 -2.76631,1.8104 -10.40443,3.14925 -11.13006,1.95092 -0.28855,-0.47653 -0.68657,-3.33138 -0.88448,-6.3441 l -0.35983,-5.47767 5.34114,-4.37132 c 2.93762,-2.40422 6.40064,-4.37131 7.69557,-4.37131 2.02645,0 2.60021,-0.87946 4.11886,-6.31346 3.07722,-11.01079 5.57198,-16.67946 8.67631,-19.71453 3.24792,-3.17544 3.18397,-6.29689 -0.12903,-6.29689 -4.23019,0 -9.23617,7.74026 -12.5711,19.43748 -1.4706,5.15811 -2.23331,6.18874 -6.88767,9.30723 -2.87866,1.92873 -7.15234,5.22794 -9.49706,7.33155 l -4.26313,3.82476 1.56536,4.54021 c 1.81395,5.26123 0.65495,10.60801 -3.03821,14.01604 -7.45133,6.87606 -36.06429,26.39554 -38.69235,26.39554 -2.14703,0 -6.62913,-7.66807 -5.87357,-10.04862 0.36703,-1.15641 1.0193,-1.88501 1.44949,-1.61914 0.4302,0.26588 4.4394,-3.1396 8.90933,-7.56772 8.9466,-8.8629 14.5531,-18.23738 18.38205,-30.73611 2.6994,-8.81158 3.31828,-22.38009 1.08387,-23.763 -2.40061,-1.48577 -3.17855,0.23793 -4.16847,9.23614 -1.88668,17.14973 -6.45754,27.18823 -17.96762,39.46044 -10.09756,10.76614 -10.6387,10.9967 -24.01405,10.23142 -9.1945,-0.52607 -12.63453,-0.26252 -21.36499,1.63686 -5.72328,1.24513 -10.62665,2.04318 -10.89639,1.77344 -0.26973,-0.26973 0.68882,-2.47525 2.13013,-4.90113 1.44131,-2.42589 2.88089,-5.2062 3.19907,-6.17847 0.31819,-0.97228 0.96425,-1.76777 1.43571,-1.76777 0.47145,0 2.46501,-1.41169 4.43013,-3.13709 3.82734,-3.36044 13.75762,-6.96444 19.18952,-6.96444 8.14518,0 10.85782,-1.55104 8.69339,-4.97075 -0.77067,-1.21762 -2.40889,-1.25083 -10.80477,-0.21904 -5.443,0.66891 -10.19798,1.70422 -10.56662,2.30069 -0.46371,0.7503 -0.87171,0.75852 -1.324,0.0268 -1.03036,-1.66717 3.49564,-5.20113 6.90514,-5.39161 2.99038,-0.16708 5.76937,-0.39691 8.39582,-0.69437 1.72127,-0.19494 1.58617,-1.69552 -0.3247,-3.60639 -1.01363,-1.01369 -3.38685,-1.58743 -6.56599,-1.58743 -4.83381,0 -4.97861,-0.0862 -4.97861,-2.9647 0,-4.55799 -1.72035,-8.14698 -3.90519,-8.14698 -1.69377,0 -1.98198,0.91266 -2.31265,7.32361 -0.40019,7.75854 -1.10518,9.22235 -13.15849,27.32134 -2.04543,3.07138 -4.7073,8.90298 -5.91527,12.95912 -1.3562,4.55386 -4.33991,10.67337 -7.80036,15.99832 -6.93963,10.67871 -6.78102,10.502 -8.00517,8.91887 z m 111.41041,-93.56006 c 0.97841,-2.04047 2.28861,-5.9413 2.91154,-8.66852 0.8886,-3.89033 1.61028,-5.03149 3.34984,-5.29697 2.89358,-0.44159 2.83451,1.56537 -0.25704,8.73257 -2.58828,6.00044 -2.50778,7.07882 0.52845,7.07882 2.67442,0 5.72187,-5.27093 7.10759,-12.29345 l 1.13017,-5.72748 6.46719,-1.75058 c 7.916,-2.14277 10.75208,-4.82249 12.32759,-11.64794 1.02662,-4.44754 0.9741,-5.61072 -0.34414,-7.62261 -2.47316,-3.77452 -4.66196,-3.0713 -4.40073,1.41388 0.42737,7.3381 -3.95494,12.32677 -10.85722,12.35948 -3.00254,0.0142 -3.16781,-0.20062 -3.71616,-4.8305 -0.77848,-6.57304 -2.61138,-10.3069 -5.05953,-10.3069 -1.81782,0 -1.93931,0.47642 -1.35238,5.3033 0.35467,2.91682 0.92763,6.98527 1.27323,9.04101 0.58155,3.45916 0.41929,3.79018 -2.17736,4.44189 -4.21319,1.05745 -5.86897,-0.63791 -7.58877,-7.77013 -1.28111,-5.31289 -1.95876,-6.52812 -3.78807,-6.79318 -1.89299,-0.27427 -2.22787,0.15446 -2.22787,2.85235 0,1.74633 1.14777,6.5943 2.5506,10.77326 2.5156,7.49383 2.52753,7.68032 0.86936,13.59002 -0.9247,3.29557 -2.07246,6.23372 -2.55061,6.52923 -1.3216,0.81678 -1.03767,4.23158 0.39335,4.73075 2.17889,0.76004 3.57368,-0.30669 5.41097,-4.1383 z m -105.30348,-8.02019 c 2.53946,-4.97418 3.81221,-13.59678 4.65699,-31.55016 0.45749,-9.72272 1.32382,-18.93332 1.92517,-20.46801 0.60135,-1.53468 2.25972,-3.32176 3.68527,-3.97129 3.30695,-1.50674 3.07179,-5.2076 -0.3618,-5.69392 -2.98746,-0.42312 -6.00009,2.2418 -8.37094,7.40479 -1.46843,3.19778 -1.86008,6.57458 -1.87764,16.18893 -0.0122,6.68159 -0.49571,15.92478 -1.07447,20.54044 -1.0064,8.02622 -3.48162,16.30363 -4.87532,16.30363 -0.36162,0 -1.2475,0.94476 -1.96862,2.09946 -0.9993,1.60014 -1.03292,2.43469 -0.14138,3.50893 0.99857,1.20321 1.59586,1.18913 4.08151,-0.0963 1.60146,-0.82815 3.54601,-2.7481 4.32123,-4.26655 z m 85.79087,-2.05523 c 0.31494,-2.65922 1.96883,-8.34971 3.67533,-12.64554 3.63306,-9.14571 3.80247,-10.78848 1.11256,-10.78848 -1.26927,0 -2.82435,1.47329 -4.29315,4.06735 -2.85775,5.04708 -5.42894,5.78939 -10.71397,3.09317 -4.18498,-2.13502 -7.2464,-1.94283 -7.2464,0.45491 0,1.75126 4.57875,4.9192 9.34391,6.46484 2.08344,0.67578 3.77696,1.53438 3.76338,1.90797 -0.0136,0.37361 -0.48321,2.66801 -1.04361,5.09868 -0.82678,3.58604 -0.71414,4.88454 0.59735,6.88613 2.22326,3.39312 4.072,1.64655 4.8046,-4.53903 z m 80.54545,-11.12884 c -1.9462,-13.57795 0.50349,-24.86603 8.37009,-38.56914 1.75421,-3.05571 3.08279,-5.89677 2.95239,-6.31346 -0.13039,-0.41668 0.18041,-0.75761 0.69068,-0.75761 0.51027,0 1.9597,-1.70463 3.22097,-3.78807 1.26127,-2.08344 4.27608,-6.39726 6.69957,-9.58626 5.81868,-7.65658 7.18712,-13.83266 5.55147,-25.05483 -1.33098,-9.13183 -3.00468,-13.41809 -5.42123,-13.88347 -2.65675,-0.51165 -2.81382,1.96491 -0.69264,10.92127 1.46181,6.17232 1.79001,9.70671 1.21252,13.05789 -0.4355,2.52718 -0.81433,5.04945 -0.84182,5.60504 -0.0275,0.55558 -0.39296,1.26552 -0.81213,1.57763 -0.41918,0.31212 -1.82587,2.00929 -3.12597,3.77148 l -2.36383,3.204 -1.26026,-5.79179 c -1.45673,-6.69476 -7.02228,-18.8936 -10.13153,-22.20676 -2.32322,-2.47558 -6.09487,-3.06679 -6.09487,-0.95538 0,0.7246 1.269,3.33837 2.82002,5.80838 3.30494,5.26314 6.27135,11.40157 6.27135,12.97733 0,0.61052 0.34093,1.11238 0.75762,1.11526 0.80439,0.006 1.57587,5.87783 1.66859,12.70096 0.0416,3.06509 -1.02453,5.98621 -4.16432,11.40938 -9.48337,16.38009 -12.65065,29.68374 -10.6588,44.77053 0.77713,5.88621 1.61548,8.65916 2.90248,9.60023 3.23198,2.36329 3.8299,0.017 2.44965,-9.61261 z M 327.94305,706.65291 c 3.47033,-3.79649 3.99558,-4.04769 5.80844,-2.77792 1.09619,0.76781 2.03075,1.76673 2.0768,2.21982 0.046,0.4531 1.19332,1.69663 2.54951,2.76341 2.19371,1.72558 2.60711,1.76935 3.74635,0.39665 1.05686,-1.27345 0.89184,-2.06871 -0.94475,-4.55283 -1.22391,-1.65542 -1.9832,-3.40155 -1.68732,-3.88031 0.29589,-0.47875 2.99327,-1.17722 5.99419,-1.55216 6.92703,-0.86547 9.72484,-2.67343 7.77426,-5.02375 -0.81073,-0.97686 -2.13142,-1.40478 -3.24487,-1.05138 -1.6006,0.508 -1.87769,0.0411 -1.87769,-3.16422 0,-3.51862 0.11368,-3.65728 1.76962,-2.15868 3.30646,2.99231 7.18385,3.87637 11.71335,2.6707 5.20163,-1.38458 7.73023,-3.55689 7.73023,-6.64101 0,-2.95435 -2.54262,-3.10056 -6.06091,-0.34851 -2.96778,2.32143 -5.78036,2.55404 -8.00168,0.66177 -2.55993,-2.18071 -9.92645,-4.70238 -13.73704,-4.70238 -1.9333,0 -3.46126,-0.34093 -3.39547,-0.75761 0.6613,-4.18825 -4.61787,-4.57018 -8.56817,-0.61987 -1.46472,1.46472 -2.66313,3.05571 -2.66313,3.53553 0,0.47982 -0.45457,0.87241 -1.01016,0.87241 -1.81506,0 -1.06277,-2.86958 1.46826,-5.60062 1.38106,-1.49019 4.35536,-3.09597 6.71757,-3.62672 7.50044,-1.68524 13.34342,-7.52701 10.74816,-10.74593 -0.82745,-1.02631 -1.56767,-0.93804 -3.67173,0.43781 -1.44944,0.94778 -3.23603,2.32173 -3.97019,3.0532 -0.73417,0.73149 -2.79222,1.32997 -4.57346,1.32997 -1.78124,0 -4.2197,0.68718 -5.4188,1.52706 -2.08698,1.46178 -2.19376,1.38952 -2.49761,-1.68997 -0.17458,-1.76937 -0.8921,-3.40573 -1.59448,-3.63633 -1.62371,-0.53312 -4.55455,6.31694 -3.81824,8.92415 0.30228,1.07039 0.80662,2.85244 1.12074,3.96011 0.42364,1.49384 0.18315,1.86506 -0.93122,1.43744 -1.98254,-0.76077 -5.70083,1.2813 -5.70083,3.13089 0,0.80325 1.14362,1.74748 2.54136,2.09829 2.64997,0.6651 6.55002,4.8235 6.55002,6.98391 0,0.68744 -1.80858,1.5391 -4.01906,1.89258 -4.34911,0.69545 -7.09262,4.19754 -7.09262,9.05374 0,4.65529 4.12265,4.24612 5.96199,-0.59172 1.12999,-2.97211 5.58658,-4.77305 7.37808,-2.98154 1.14423,1.14423 0.92458,1.82929 -2.29279,7.15096 -2.07613,3.434 -2.00979,6.17699 0.14939,6.17699 0.6372,0 2.87546,-1.87827 4.9739,-4.17393 z M 328.44,644.63928 c 3.3335,-2.35834 7.56897,-4.61096 9.41216,-5.00583 3.69386,-0.79134 5.30806,-3.23398 3.1094,-4.70523 -2.8924,-1.93548 -9.29703,0.16346 -16.73398,5.4841 -7.68394,5.49733 -9.3567,7.5793 -7.18601,8.94393 1.90844,1.19977 4.62296,0.0765 11.39843,-4.71697 z"
           style="opacity:0.999;fill:#b3b3b3;fill-opacity:1;fill-rule:evenodd;stroke:#020202;stroke-width:7.55906;stroke-linecap:round;stroke-miterlimit:4;stroke-dasharray:none;stroke-opacity:0.991936;paint-order:markers stroke fill" />
        <path
           transform="scale(0.26458333)"
           id="path4857"
           d="m 349.13705,829.7723 c -2.82695,-4.63655 -2.50663,-5.88992 2.43327,-9.52098 9.64597,-7.09024 19.31516,-21.12408 23.3463,-33.88477 3.23697,-10.24675 4.29935,-22.74385 2.17091,-25.53716 -2.46218,-3.23129 -3.68107,-0.82378 -5.76411,11.38506 -2.93458,17.19967 -7.00634,25.42943 -18.51718,37.4265 -8.62337,8.98763 -9.35802,9.26595 -24.56862,9.3077 -7.33542,0.0201 -15.77048,0.66037 -19.4956,1.47974 -10.68546,2.35037 -10.59069,2.4074 -7.13526,-4.29315 4.57969,-8.88062 13.97945,-14.42518 26.96344,-15.90468 8.69769,-0.99108 9.62866,-1.38063 9.2726,-3.88005 -0.27984,-1.96432 -0.92628,-2.18572 -6.37235,-2.18252 -3.3335,0.002 -8.22011,0.37074 -10.85914,0.81951 -2.77684,0.4722 -4.79822,0.43263 -4.79822,-0.0939 0,-1.58117 4.97486,-3.25451 9.67568,-3.25451 3.11164,0 4.71345,-0.47841 5.11625,-1.52808 0.8679,-2.26172 -1.5112,-4.53283 -4.74833,-4.53283 -5.04413,0 -8.0233,-1.70326 -8.0233,-4.58709 0,-3.67242 -1.75008,-6.52459 -4.00346,-6.52459 -1.57809,0 -2.0269,1.01456 -2.56945,5.80838 -0.98812,8.73071 -2.0183,11.24623 -9.15817,22.36276 -3.60504,5.61294 -8.00957,13.95763 -9.78784,18.54376 -2.15829,5.5662 -3.34299,7.61117 -3.56342,6.15098 -0.49758,-3.29615 -2.4459,-3.46944 -8.94832,-0.79593 -9.01025,3.70462 -8.83667,3.829 -9.93404,-7.11816 -0.33415,-3.3335 -0.83632,-7.53826 -1.11593,-9.34391 l -0.50839,-3.283 h 4.46778 c 7.99221,0 9.15355,-4.74747 1.6106,-6.58403 l -4.4716,-1.08874 v -4.91079 -4.91079 l 6.278,-0.0916 c 7.19782,-0.10508 10.05748,-1.91957 8.87869,-5.63362 -0.55556,-1.75043 -1.23146,-2.10148 -3.13428,-1.62786 -1.33428,0.33211 -3.4687,0.8662 -4.74316,1.18687 -1.49722,0.37673 -3.19513,-0.12728 -4.79822,-1.4243 -2.45131,-1.98335 -2.48511,-2.23539 -2.82186,-21.03867 -0.19487,-10.88081 0.17226,-23.14113 0.85724,-28.62774 1.40063,-11.21893 6.09062,-30.54442 9.75565,-40.199 2.43497,-6.4143 2.56377,-7.73922 2.43145,-25.01152 -0.1858,-24.25372 0.36327,-26.52345 8.81945,-36.45746 3.71432,-4.36347 7.06808,-8.07577 7.45278,-8.24957 0.38471,-0.1738 2.71757,-1.85694 5.18414,-3.74031 4.4252,-3.37889 4.49405,-3.52427 5.19101,-10.96195 0.38849,-4.14571 1.2394,-8.26638 1.89093,-9.15705 0.68292,-0.93358 3.36775,-1.87786 6.33966,-2.22971 4.95076,-0.58613 5.36386,-0.8841 10.42326,-7.51824 2.89751,-3.79935 7.8552,-9.14908 11.01709,-11.88827 l 5.7489,-4.98036 7.92917,0.77636 c 8.59918,0.84196 9.2947,0.76462 18.31535,-2.03644 3.33351,-1.03511 9.47018,-2.64237 13.63706,-3.5717 4.16688,-0.92933 10.8878,-3.00112 14.93537,-4.60398 8.38734,-3.32143 16.10411,-5.24896 18.03994,-4.50611 0.94715,0.36345 -0.38909,3.86445 -4.73923,12.41692 -3.33206,6.55091 -6.72989,14.62001 -7.55074,17.93135 -2.81335,11.34925 -1.32304,26.89447 4.01375,41.86667 0.87255,2.44789 7.77882,11.47264 7.49012,11.76133 -0.53619,0.53619 -24.18568,-17.71685 -29.66383,-22.25796 -2.99898,-2.48601 -3.02977,-2.61456 -2.96474,-12.37523 0.0362,-5.42472 0.43006,-11.1132 0.87537,-12.64105 0.7279,-2.4974 0.55857,-2.77792 -1.67692,-2.77792 -4.1331,0 -5.83131,2.99697 -6.62377,11.68953 l -0.72161,7.91534 -8.04303,-8.79228 c -7.93797,-8.67744 -10.18669,-10.15133 -11.25207,-7.37499 -2.37747,6.19557 19.69135,26.73499 49.68277,46.23967 5.60154,3.64291 11.73821,8.55728 13.63706,10.92079 7.75862,9.65727 9.47666,11.26726 11.28351,10.5739 2.54023,-0.97477 2.25217,-2.19133 -2.38538,-10.07376 l -4.15075,-7.05504 0.51093,-10.6066 c 0.57438,-11.92363 1.68598,-15.71967 5.49905,-18.77884 3.58072,-2.87276 2.53762,-5.46482 -2.19917,-5.46482 -2.56114,0 -3.95636,0.6303 -5.03108,2.27284 -1.92974,2.94928 -4.75405,13.31737 -4.63583,17.8899 0.0748,2.89492 18.77422,42.89653 1.84336,6.70347 -1.57805,-3.3734 -8.83078,-21.86856 -9.91801,-30.03859 -1.98978,-14.95227 0.86877,-24.3832 12.4829,-41.18363 11.20044,-16.20201 21.9067,-21.28927 58.74175,-27.91213 16.01949,-2.88026 25.92164,-5.54961 31.9369,-8.6093 2.00894,-1.02186 7.32808,-5.31554 11.82031,-9.54151 l 8.16769,-7.68358 3.07943,4.25104 c 1.6937,2.33807 3.07714,4.75104 3.07431,5.36216 -0.008,1.81181 -6.10588,7.39441 -12.96006,11.86562 -6.65571,4.34173 -8.23679,6.32831 -6.45484,8.11027 2.14636,2.14634 10.34284,-2.1148 21.29932,-11.07297 l 4.06046,-3.3199 4.29121,5.68367 c 4.85163,6.42593 4.65122,8.09775 -1.20718,10.07025 -2.66857,0.8985 -3.46794,1.72897 -3.46794,3.6029 0,3.36018 3.41703,3.67466 9.85143,0.90666 4.14202,-1.78186 5.26153,-1.94145 5.89611,-0.84051 0.43082,0.74743 1.94737,2.9204 3.37011,4.82882 l 2.58678,3.46987 -10.53701,5.88758 c -11.03226,6.16431 -14.70295,9.56079 -14.70295,13.60458 0,4.05971 2.82858,4.02162 6.82402,-0.0919 4.40808,-4.53833 16.93567,-11.66104 20.54209,-11.67944 2.09723,-0.0107 3.14942,0.96418 5.2946,4.90557 l 2.67721,4.91893 -4.18014,0.56067 c -4.73591,0.63522 -8.52796,3.74387 -7.58008,6.21399 0.3437,0.89566 4.27069,3.27152 8.72665,5.27969 4.45597,2.00817 8.10175,3.9838 8.10175,4.3903 0,0.40649 -1.30891,1.00086 -2.90869,1.32082 -3.6069,0.72138 -6.18268,3.19475 -6.18268,5.93687 0,1.83748 0.44354,2.01133 3.78807,1.48479 2.08344,-0.32801 5.49955,-1.02339 7.59137,-1.54529 5.53493,-1.38096 7.82751,0.77676 7.96459,7.49603 0.19239,9.43156 -1.50453,11.25743 -12.58476,13.54115 -5.1473,1.06089 -5.82937,1.47808 -5.55584,3.39829 0.40471,2.84119 3.42552,3.25818 12.24609,1.69043 3.78594,-0.6729 7.06463,-1.04237 7.28595,-0.82104 0.56526,0.56525 2.71711,28.20621 2.23351,28.68982 -0.83437,0.83437 -17.33913,-1.78243 -20.03496,-3.17651 -3.98356,-2.05997 -6.97463,-1.88912 -6.97463,0.39839 0,3.66473 7.74463,8.23778 13.95098,8.23778 6.94438,0 13.32314,1.2224 13.32314,2.55318 0,1.36101 -1.83547,1.96184 -9.26616,3.03321 -3.60048,0.51912 -5.43123,0.26075 -7.71609,-1.08895 -3.68155,-2.17474 -6.25126,-1.35206 -6.25126,2.00131 0,3.63933 3.15179,4.87036 12.8088,5.00289 4.61311,0.0633 8.39127,0.41982 8.39593,0.79224 0.0187,1.49486 -6.32393,18.66673 -7.67852,20.78862 -1.88912,2.9592 -4.57138,2.87751 -8.29123,-0.25254 -4.23556,-3.56399 -7.25529,-3.38428 -7.25529,0.43176 0,3.37495 3.77393,6.93953 8.30695,7.84613 1.88922,0.37784 2.80473,1.18953 2.80473,2.48668 0,3.77628 -3.21641,3.30147 -13.57681,-2.00422 -11.55903,-5.91952 -14.70746,-6.51589 -14.70746,-2.78587 0,1.7753 2.61123,4.88968 9.59645,11.44553 5.27805,4.95363 9.59645,9.809 9.59645,10.78971 0,2.55558 -3.21931,7.6507 -4.83402,7.6507 -1.85737,0 -9.27953,-5.22486 -12.13548,-8.54281 -2.83842,-3.29761 -5.64654,-3.01372 -6.06802,0.61343 -0.29885,2.57189 3.5343,6.66625 13.77951,14.71852 2.29696,1.80529 2.32475,2.01853 1.06059,8.13896 -0.714,3.4568 -1.60464,6.2851 -1.97921,6.2851 -0.37458,0 -2.61362,-0.68185 -4.97566,-1.51523 -8.09724,-2.85687 -13.03578,-1.2536 -11.76271,3.81871 0.3216,1.28135 3.1375,5.15064 6.25757,8.59842 l 5.67285,6.26869 -3.74522,11.36522 c -2.05987,6.25086 -4.08066,11.73456 -4.49066,12.18597 -0.77481,0.85311 -6.41048,-4.31096 -9.18066,-8.4124 -2.27939,-3.37477 -4.97453,-2.06306 -4.97453,2.4211 0,2.99796 0.90262,4.29468 6.52612,9.37562 l 6.5261,5.89645 -1.36151,6.36797 c -0.74882,3.50238 -1.57215,6.57863 -1.82962,6.83609 -0.25745,0.25746 -3.97615,-3.20371 -8.26375,-7.69151 -8.25049,-8.63568 -10.9399,-9.72519 -11.52104,-4.66729 -0.26651,2.31954 0.67127,3.81807 5.05184,8.07258 2.9585,2.87336 7.08325,6.66285 9.16609,8.4211 3.60037,3.03925 3.78699,3.49565 3.78699,9.26129 0,6.93684 -0.64945,9.26019 -2.58857,9.26019 -2.06405,0 -23.40663,-8.41671 -30.77721,-12.13735 -15.86458,-8.00842 -31.2852,-20.73081 -40.0997,-33.08322 -2.48769,-3.48619 -6.65451,-11.21584 -9.25959,-17.177 -3.70445,-8.47678 -5.16767,-10.83849 -6.71513,-10.83849 -1.78072,0 -2.02911,0.90921 -2.48368,9.09137 -0.49869,8.97641 -1.44733,12.07581 -4.46185,14.57764 -1.36548,1.13325 -1.46944,0.50569 -0.90951,-5.49045 0.58679,-6.28384 0.49406,-6.74364 -1.29137,-6.40353 -1.30137,0.2479 -3.58999,3.79405 -7.07545,10.96322 -4.99734,10.27887 -10.02858,17.16277 -12.5438,17.16277 -0.80111,0 -0.99167,-0.78984 -0.54838,-2.27284 0.37367,-1.25007 0.94671,-5.15409 1.27344,-8.67562 0.58249,-6.2782 0.54799,-6.39612 -1.77332,-6.06091 -1.92487,0.27795 -2.70962,1.47476 -4.19837,6.40277 -1.00705,3.3335 -2.62096,6.98311 -3.58647,8.11025 -2.36044,2.75556 -8.44564,5.52681 -12.13594,5.52681 -2.55643,0 -3.09814,-0.47039 -3.63541,-3.15673 -1.37841,-6.89201 -0.8642,-8.26666 4.58884,-12.26752 2.85422,-2.09413 6.23359,-4.06955 7.50971,-4.38983 1.88973,-0.4743 2.90834,-2.34768 5.49006,-10.09713 1.74343,-5.23313 4.75503,-11.81922 6.69246,-14.63575 3.79949,-5.52348 3.81308,-7.98097 0.0441,-7.98097 -4.20201,0 -7.97541,5.80624 -13.26785,20.41565 -1.38052,3.81086 -2.96724,5.66567 -7.9689,9.31537 -3.43483,2.50639 -7.54775,5.72973 -9.13981,7.16296 -2.80793,2.52781 -2.8573,2.7393 -1.64778,7.05928 1.69175,6.04235 0.64251,10.59962 -3.29676,14.31902 -7.3703,6.95891 -34.69016,25.57038 -37.5349,25.57038 -0.89525,0 -2.52848,-1.47735 -3.62941,-3.283 z m 37.97521,-73.97921 c 0.90487,-1.38101 2.61997,-5.32437 3.81136,-8.76304 1.19137,-3.43866 2.73435,-6.43774 3.42883,-6.66463 1.81107,-0.59167 1.56159,1.95318 -0.77183,7.87313 -2.16713,5.49805 -1.96451,7.035 0.92742,7.035 2.95347,0 5.43156,-3.70851 7.21666,-10.79985 l 1.68058,-6.67608 6.045,-1.85571 c 7.25871,-2.2283 10.88169,-5.339 12.34149,-10.59644 1.41504,-5.09628 1.33705,-7.55242 -0.30869,-9.72041 -2.20459,-2.90417 -4.65474,-2.22245 -4.65474,1.29514 0,4.20577 -2.43906,9.6815 -4.89883,10.99793 -1.12168,0.6003 -3.42435,1.09146 -5.11704,1.09146 -2.55124,0 -3.17126,-0.47512 -3.62511,-2.77792 -1.52573,-7.74127 -3.04011,-10.86106 -5.43658,-11.19992 l -2.41003,-0.34077 0.71811,9.17961 0.71811,9.17961 h -3.12796 c -3.37141,0 -3.82761,-0.65849 -6.29843,-9.09138 -1.00832,-3.44132 -1.88407,-4.6241 -3.60473,-4.86848 -1.9835,-0.2817 -2.27285,0.12479 -2.27285,3.19299 0,1.9337 0.90327,6.39735 2.00728,9.91926 2.5343,8.08473 2.52664,9.09755 -0.12583,16.65064 -1.19878,3.41363 -1.89951,6.93654 -1.55716,7.82869 0.91866,2.39397 3.4403,1.97227 5.31497,-0.88883 z M 280.947,747.91527 c 4.25821,-4.25822 5.20845,-8.82579 7.00916,-33.69151 1.42583,-19.68904 2.125,-22.73239 5.65672,-24.62252 2.35175,-1.25861 2.65477,-4.84943 0.47967,-5.68409 -2.89763,-1.11192 -6.40962,0.66298 -8.72513,4.40954 -2.0868,3.37653 -2.44921,5.81975 -3.49455,23.55886 -1.23095,20.88906 -2.94259,29.59286 -6.44241,32.76016 -2.02444,1.83209 -2.66926,4.61488 -1.37034,5.91379 1.42178,1.42178 3.69284,0.54981 6.88688,-2.64423 z m 87.42289,-1.98563 c 0.61606,-2.36123 2.45258,-8.45809 4.08116,-13.54857 1.62857,-5.09048 2.96104,-9.97709 2.96104,-10.85914 0,-2.93809 -3.66211,-1.65396 -6.94961,2.43689 -3.63171,4.51918 -4.74071,4.75829 -10.99371,2.37025 -3.36299,-1.28434 -4.64955,-1.39464 -5.56691,-0.47728 -1.88093,1.88092 0.2468,4.36634 6.16244,7.19841 l 5.27503,2.52538 -0.61247,5.38474 c -0.48833,4.29326 -0.25681,5.77774 1.14218,7.3236 2.54439,2.81152 3.24924,2.44283 4.50085,-2.35428 z m 81.30105,-18.52096 c 0.0117,-13.93342 0.21309,-15.56045 2.67784,-21.6326 3.42877,-8.44712 8.93219,-17.98695 16.34398,-28.33133 8.44265,-11.78308 9.09971,-13.73969 8.474,-25.23382 -0.54726,-10.0529 -2.54041,-16.73715 -5.30739,-17.79894 -3.27891,-1.25823 -3.75503,1.13036 -1.96989,9.88265 2.30618,11.307 1.62254,18.7374 -2.16014,23.47807 l -2.84217,3.56199 -1.3281,-5.2552 c -1.50421,-5.95211 -7.66574,-19.49793 -10.08483,-22.17098 -1.86518,-2.06102 -6.34132,-2.38402 -6.34132,-0.45761 0,0.72294 2.30455,5.78598 5.12123,11.25119 4.16843,8.088 5.22687,11.19677 5.68902,16.70924 0.56237,6.70798 0.50894,6.89194 -5.60657,19.30594 -3.39589,6.89338 -6.91072,15.7154 -7.81073,19.60448 -2.14709,9.27786 -1.59074,26.35224 0.98683,30.28611 3.38825,5.17112 4.14484,2.76951 4.15824,-13.19919 z M 327.93492,707.29131 c 1.88473,-1.94455 3.72244,-3.53554 4.08381,-3.53554 0.36137,0 2.29523,1.59099 4.29746,3.53554 2.00223,1.94454 4.13179,3.53553 4.73235,3.53553 2.04577,0 2.3456,-3.24827 0.5763,-6.24345 -0.97071,-1.64329 -1.57233,-3.18039 -1.33693,-3.4158 0.2354,-0.23541 2.88551,-0.89407 5.88912,-1.46368 3.00361,-0.56963 6.09943,-1.67402 6.87961,-2.4542 1.86709,-1.86708 0.74435,-4.60562 -1.88821,-4.60562 -2.03543,0 -3.86707,-2.53056 -2.6863,-3.71134 0.32657,-0.32656 2.15605,0.14762 4.06553,1.05372 4.32316,2.05148 6.76285,2.07122 11.49726,0.093 4.20902,-1.75864 5.26861,-3.0152 5.29079,-6.27427 0.0184,-2.70271 -3.37543,-3.08204 -6.49106,-0.72549 -2.71182,2.05111 -4.57688,1.87313 -10.8183,-1.03241 -2.97199,-1.38353 -6.63025,-2.51996 -8.12948,-2.52538 -1.49923,-0.005 -3.91541,-1.11229 -5.36929,-2.4597 -2.27524,-2.10862 -3.05714,-2.3056 -5.61396,-1.4143 -1.63381,0.56956 -3.87696,2.18785 -4.98478,3.59622 -1.29812,1.65031 -2.01423,2.02922 -2.01423,1.0658 0,-2.27793 2.95561,-4.46763 9.15771,-6.7846 6.85915,-2.56241 11.53983,-7.02637 10.57036,-10.08091 -0.86501,-2.7254 -2.14632,-2.66697 -6.00176,0.27372 -2.40373,1.83341 -11.05007,4.68224 -14.21084,4.68224 -0.21181,0 -0.53036,-1.02278 -0.7079,-2.27284 -0.17754,-1.25006 -0.99122,-2.27284 -1.80819,-2.27284 -2.41772,0 -4.20739,4.61157 -3.62619,9.34391 0.45438,3.69983 0.26781,4.29315 -1.35004,4.29315 -2.08475,0 -4.52863,2.41815 -3.98794,3.94595 0.19142,0.54089 1.93903,2.05162 3.88357,3.3572 4.55236,3.05647 4.65681,5.91492 0.2578,7.05483 -4.1026,1.06309 -6.55563,4.68067 -6.13551,9.0483 0.4605,4.78733 3.27062,4.97786 5.96884,0.4047 1.50126,-2.54443 2.84372,-3.60793 4.55434,-3.60793 2.95067,0 3.01402,0.94739 0.4053,6.06091 -1.11117,2.17807 -2.02031,4.66009 -2.02031,5.5156 0,2.6821 3.50309,1.70115 7.07107,-1.98006 z m -0.27151,-61.58691 c 3.98881,-2.4823 8.89865,-5.20114 10.91075,-6.04185 2.57817,-1.07722 3.55227,-2.05616 3.29904,-3.3154 -0.28482,-1.41624 -1.34487,-1.77389 -5.11118,-1.72443 -3.95396,0.0519 -5.92865,0.86648 -11.76052,4.85122 -8.13967,5.56158 -9.63232,7.11976 -8.82805,9.21566 0.96645,2.51852 3.84982,1.76939 11.48996,-2.9852 z"
           style="opacity:0.999;fill:#6d6d6d;fill-opacity:1;fill-rule:evenodd;stroke:#020202;stroke-width:7.55906;stroke-linecap:round;stroke-miterlimit:4;stroke-dasharray:none;stroke-opacity:0.991936;paint-order:markers stroke fill"
           sodipodi:nodetypes="sssssssssssssssssssssssssscsscccssssssssssssssssscsssssssssssssscsssssscssssssssssscscssscsssssscssssscssssssssssssssssssssssssssssssssssssssssscssssscsssssssssssssssssssssssssssssssssssssssssssscsssssssscccsssssssssssssssssssssssscsssssssssscsssssssssssssssssssssssscsssssssssssssssssssssssssssss" />
        <path
           transform="scale(0.26458333)"
           id="path4859"
           d="m 413.54535,988.19335 c -2.08344,-0.51756 -3.78807,-1.28055 -3.78807,-1.69552 0,-0.41497 1.169,-2.14376 2.59778,-3.84177 2.78715,-3.31234 2.54352,-5.14895 -0.68301,-5.14895 -2.07647,0 -5.81717,3.17813 -7.6994,6.54149 -1.03539,1.85014 -1.49678,1.77168 -11.53655,-1.9618 -5.75191,-2.13896 -11.02623,-3.8929 -11.72071,-3.89763 -0.69448,-0.005 -1.26269,-0.33228 -1.26269,-0.72787 0,-0.39557 -1.37346,-1.28815 -3.05213,-1.98347 -1.67867,-0.69533 -3.27831,-1.6302 -3.55475,-2.07748 -0.27643,-0.44729 0.84166,-2.93295 2.48467,-5.5237 3.13337,-4.94081 5.51412,-13.45313 4.501,-16.09325 -0.32721,-0.85272 -1.4101,-1.55041 -2.40642,-1.55041 -1.32893,0 -2.12159,1.29273 -2.97567,4.85294 -0.64031,2.6691 -2.52652,7.23826 -4.19158,10.15366 -3.46426,6.0657 -4.10322,6.10637 -12.27086,0.78111 -4.01164,-2.61557 -4.79823,-3.63941 -4.79823,-6.24544 0,-2.10335 0.86008,-3.86485 2.64474,-5.41659 2.42603,-2.1094 2.51088,-2.43344 1.02603,-3.91828 -2.74586,-2.74587 -6.84819,-0.51604 -8.80717,4.78714 -0.90547,2.45124 -1.82484,4.02067 -2.04303,3.48764 -0.21819,-0.53303 -3.01048,-2.99452 -6.20509,-5.46997 -3.1946,-2.47545 -5.80837,-5.09013 -5.80837,-5.8104 0,-0.72027 1.13642,-3.5522 2.52538,-6.29318 3.12008,-6.15718 3.33941,-10.10153 0.56172,-10.10153 -1.42438,0 -2.71066,1.66453 -4.68364,6.06092 -1.49599,3.3335 -3.02021,6.06092 -3.38717,6.06092 -0.36696,0 -2.3273,-1.70464 -4.35632,-3.78808 l -3.68913,-3.78807 4.49427,-6.77383 c 2.47185,-3.72561 4.49428,-7.70308 4.49428,-8.83883 0,-3.93314 -3.49591,-2.18656 -7.99809,3.99591 -2.42752,3.3335 -4.77644,6.06091 -5.21982,6.06091 -0.44338,0 -2.91221,-2.73699 -5.4863,-6.0822 l -4.68014,-6.0822 1.7681,-4.6297 c 2.23961,-5.86435 3.8454,-7.44956 7.54626,-7.44956 4.04963,0 4.06261,-3.33809 0.0195,-5.0128 -4.31979,-1.78931 -8.74866,0.88889 -11.21286,6.78057 -1.42191,3.39967 -2.91426,2.7708 -5.08842,-2.14425 -1.78632,-4.03828 -1.83156,-4.82356 -0.52746,-9.15674 1.325,-4.40264 4.69529,-8.64952 6.8642,-8.64952 2.16974,0 0.0163,-3.56491 -2.43613,-4.03283 -2.58146,-0.49255 -2.28094,-0.93301 7.58847,-11.1221 5.65202,-5.83508 12.09466,-12.88028 14.317,-15.65601 2.22233,-2.77572 4.53472,-5.57396 5.13863,-6.21829 0.60391,-0.64434 2.60329,-3.51731 4.44308,-6.38437 3.71873,-5.79514 3.99149,-5.69346 6.71252,2.50242 5.21684,15.71337 29.34452,66.06048 34.74983,72.5123 11.2987,13.48621 43.52521,23.2632 61.08287,18.53153 19.34138,-5.21236 26.55143,-14.65714 27.53398,-36.06808 0.79724,-17.37272 -3.67064,-27.58047 -14.08418,-32.17803 -5.69051,-2.51236 -10.72025,-2.64086 -18.06468,-0.46153 -15.36214,4.55843 -20.29486,15.50371 -14.45129,32.06613 1.95941,5.55358 1.76176,6.53476 -1.38942,6.89735 -2.05707,0.23669 -3.25734,1.30075 -4.62546,4.10055 -2.35192,4.81311 -3.21455,4.39458 -12.866,-6.24241 -11.63926,-12.82777 -13.05622,-15.42775 -13.06133,-23.96615 -0.002,-3.97911 0.72703,-10.79764 1.62091,-15.15229 0.89388,-4.35465 1.67314,-8.71304 1.73169,-9.68531 0.0585,-0.97227 0.40847,-1.76777 0.7776,-1.76777 0.63666,0 3.2121,-5.40731 3.08653,-6.48039 -0.0326,-0.27837 2.63757,-3.4011 5.93367,-6.9394 8.65952,-9.29584 18.71846,-13.77248 31.07499,-13.82963 4.96852,-0.023 5.26631,0.11083 4.29315,1.9292 -1.485,2.77474 -1.29712,5.18534 0.56445,7.24235 2.1599,2.38667 4.45077,1.32782 4.45077,-2.05717 0,-1.58252 1.01373,-3.69864 2.39222,-4.99366 2.33161,-2.19044 2.5549,-2.20978 8.81578,-0.76338 3.53296,0.8162 6.73604,1.29087 7.11796,1.05484 0.38192,-0.23604 0.84685,-0.0854 1.0332,0.33475 0.18635,0.42015 2.97021,2.07893 6.18636,3.68617 l 5.84755,2.92227 -3.90421,1.74797 c -4.78565,2.14259 -7.1739,6.80516 -5.43763,10.61585 1.40291,3.07907 3.70852,2.36908 5.07968,-1.56425 0.64719,-1.85648 2.50837,-3.65725 5.19834,-5.02957 4.74217,-2.41928 4.84197,-2.37984 11.4609,4.52903 7.0506,7.35949 7.03924,7.30959 2.58158,11.33682 -6.64623,6.00446 -4.30247,10.19353 2.71046,4.8445 1.82103,-1.38896 3.82542,-2.52538 4.45423,-2.52538 1.2994,0 7.8102,13.53629 8.73507,18.16069 l 0.60983,3.04912 -4.70106,-1.74233 c -3.52352,-1.30591 -5.13647,-1.46814 -6.43938,-0.64765 -3.57258,2.24978 -2.58844,4.16759 3.00282,5.85163 2.94822,0.88798 6.69833,2.71948 8.33359,4.07001 2.93643,2.42514 2.97859,2.60619 3.4075,14.63622 l 0.43429,12.1807 h -4.0825 c -5.4244,0 -7.27819,0.81781 -7.27819,3.21082 0,1.45051 0.6116,1.92466 2.27285,1.76204 1.25006,-0.12237 3.06833,0.0724 4.04061,0.43278 0.97227,0.3604 2.50045,0.8878 3.39595,1.17199 1.71944,0.54568 1.55046,3.80969 -0.76649,14.80538 l -0.99362,4.71549 -5.06176,-3.14655 c -3.93709,-2.44743 -5.43743,-2.90999 -6.75256,-2.08185 -3.09816,1.95094 -2.28201,3.83728 2.88966,6.67871 2.80301,1.54004 5.34825,3.45644 5.6561,4.25866 0.30784,0.80222 -0.84667,3.54245 -2.56559,6.0894 -1.71892,2.54695 -3.1253,5.13836 -3.1253,5.75869 0,0.62032 -0.23291,0.89496 -0.51757,0.61029 -0.28467,-0.28467 -3.12573,2.07092 -6.31346,5.23463 -3.18773,3.16371 -7.24256,6.58272 -9.01072,7.59782 l -3.21484,1.84562 -4.77581,-3.91342 c -2.62669,-2.15238 -5.49842,-5.1841 -6.38161,-6.73714 -1.76655,-3.1064 -4.58014,-3.73566 -5.53833,-1.23865 -1.06642,2.77904 -0.72774,3.45268 4.53158,9.01364 2.82959,2.99189 4.86981,5.88462 4.5338,6.42829 -0.336,0.54368 -2.9611,1.7691 -5.83353,2.72317 l -5.22261,1.73468 -2.33663,-2.92013 c -1.28516,-1.60607 -2.3389,-3.6888 -2.34166,-4.62828 -0.007,-2.38814 -1.62057,-3.12524 -4.02475,-1.83856 -2.54551,1.36231 -2.55711,2.61402 -0.0673,7.25947 1.6961,3.16458 1.76115,3.76449 0.46219,4.26295 -1.25206,0.48046 -14.84459,1.88483 -28.19497,2.91308 -1.66675,0.12837 -4.73509,-0.19006 -6.81853,-0.70763 z"
           style="opacity:0.999;fill:#6d6d6d;fill-opacity:1;fill-rule:evenodd;stroke:#020202;stroke-width:7.55906;stroke-linecap:round;stroke-miterlimit:4;stroke-dasharray:none;stroke-opacity:0.991936;paint-order:markers stroke fill" />
        <path
           transform="scale(0.26458333)"
           id="path4861"
           d="m 275.38328,842.83068 c -2.59106,-5.85423 -2.21297,-7.25723 2.1932,-8.13847 1.84431,-0.36886 5.13386,-1.84898 7.31012,-3.28917 3.37922,-2.23625 3.85373,-2.34364 3.2505,-0.73566 -0.87754,2.3392 -6.16472,11.16328 -8.7047,14.52779 l -1.89287,2.50734 z"
           style="opacity:0.999;fill:#6d6d6d;fill-opacity:1;fill-rule:evenodd;stroke:#020202;stroke-width:7.55906;stroke-linecap:round;stroke-miterlimit:4;stroke-dasharray:none;stroke-opacity:0.991936;paint-order:markers stroke fill" />
        <path
           transform="scale(0.26458333)"
           id="path4863"
           d="m 338.83543,692.6288 c -0.62356,-0.27124 -1.40606,-0.90875 -1.73888,-1.4167 -0.51608,-0.78763 -0.53892,-1.08338 -0.15522,-2.0097 0.85581,-2.06612 4.07553,-2.789 6.32185,-1.41937 2.17163,1.3241 1.76115,3.78659 -0.8103,4.861 -1.48714,0.62137 -2.16044,0.61854 -3.61745,-0.0152 z"
           style="opacity:0.999;fill:#000000;fill-opacity:1;fill-rule:evenodd;stroke:#020202;stroke-width:7.55906;stroke-linecap:round;stroke-miterlimit:4;stroke-dasharray:none;stroke-opacity:0.991936;paint-order:markers stroke fill" />
        <path
           transform="scale(0.26458333)"
           id="path4865"
           d="m 330.50826,685.05817 c 0.007,-0.63968 2.16323,-4.02722 2.88504,-4.5328 0.4897,-0.343 1.19379,-0.46195 1.97961,-0.33443 0.85382,0.13856 1.4164,0.0198 1.87584,-0.39599 0.53913,-0.4879 0.84047,-0.52249 1.68835,-0.19377 l 1.03209,0.40014 -2.06059,0.64496 c -2.30597,0.72177 -3.24905,1.26813 -5.70727,3.30639 -0.93303,0.77364 -1.69492,1.27112 -1.69307,1.1055 z"
           style="opacity:0.999;fill:#000000;fill-opacity:1;fill-rule:evenodd;stroke:#020202;stroke-width:7.55906;stroke-linecap:round;stroke-miterlimit:4;stroke-dasharray:none;stroke-opacity:0.991936;paint-order:markers stroke fill" />
        <path
           transform="scale(0.26458333)"
           id="path4867"
           d="m 334.20987,694.88512 c -0.81048,-0.18214 -1.76268,-0.65059 -2.11599,-1.04099 -0.60684,-0.67056 -0.60929,-0.77924 -0.0443,-1.96414 0.32897,-0.68987 0.59813,-1.48096 0.59813,-1.75799 0,-0.27702 0.39671,-0.95461 0.88157,-1.50574 l 0.88157,-1.00206 0.0113,2.29005 c 0.009,1.79493 0.20758,2.62501 0.9192,3.83929 0.49935,0.85208 0.7806,1.53202 0.625,1.51099 -0.1556,-0.021 -0.94604,-0.18727 -1.75652,-0.36941 z"
           style="opacity:0.999;fill:#000000;fill-opacity:1;fill-rule:evenodd;stroke:#020202;stroke-width:7.55906;stroke-linecap:round;stroke-miterlimit:4;stroke-dasharray:none;stroke-opacity:0.991936;paint-order:markers stroke fill" />
      </g>
    </g>
  </g>
</svg>
