<?xml version="1.0" encoding="UTF-8" standalone="no"?>
<svg
   xmlns:dc="http://purl.org/dc/elements/1.1/"
   xmlns:cc="http://creativecommons.org/ns#"
   xmlns:rdf="http://www.w3.org/1999/02/22-rdf-syntax-ns#"
   xmlns:svg="http://www.w3.org/2000/svg"
   xmlns="http://www.w3.org/2000/svg"
   id="svg8"
   version="1.1"
   viewBox="0 0 1876.1516 1127.7971"
   height="4262.54"
   width="7090.9668">
  <defs
     id="defs2" />
  <metadata
     id="metadata5">
    <rdf:RDF>
      <cc:Work
         rdf:about="">
        <dc:format>image/svg+xml</dc:format>
        <dc:type
           rdf:resource="http://purl.org/dc/dcmitype/StillImage" />
        <dc:title></dc:title>
      </cc:Work>
    </rdf:RDF>
  </metadata>
  <g
     id="layer1">
    <g
       style="stroke-width:4.50600006;stroke-miterlimit:4;stroke-dasharray:none;stroke:#000000;stroke-opacity:1"
       id="g2559">
      <g
         style="stroke-width:2.41984612;stroke-miterlimit:4;stroke-dasharray:none;stroke:#000000;stroke-opacity:1"
         id="g1803"
         transform="matrix(1.8621019,0,0,1.8621019,-1733.7596,-862.02669)">
        <path
           style="opacity:0.999;fill:none;fill-rule:evenodd;stroke:#000000;stroke-width:2.41984612;stroke-linecap:round;stroke-opacity:1;paint-order:markers stroke fill;stroke-miterlimit:4;stroke-dasharray:none"
           d="m 1473.1896,549.50615 c -28.8651,-50.24667 -90.8716,-57.73022 -90.8716,-57.73022 -44.9013,-16.03617 -137.9111,-5.34539 -137.9111,-5.34539 -76.9736,5.34539 -135.7729,106.90781 -135.7729,106.90781 0,0 -100.4933,140.04923 89.8026,246.95705"
           id="path1389" />
        <path
           style="opacity:0.999;fill:none;fill-rule:evenodd;stroke:#000000;stroke-width:2.41984612;stroke-linecap:round;stroke-opacity:1;paint-order:markers stroke fill;stroke-miterlimit:4;stroke-dasharray:none"
           d="m 1110.7722,763.32177 c 0,0 153.9472,-38.48681 205.263,84.45716"
           id="path1391" />
        <path
           style="opacity:0.999;fill:none;fill-rule:evenodd;stroke:#000000;stroke-width:2.41984612;stroke-linecap:round;stroke-opacity:1;paint-order:markers stroke fill;stroke-miterlimit:4;stroke-dasharray:none"
           d="m 1086.1834,867.02234 c 0,0 100.4933,65.21376 209.5393,17.10526 2.1381,-1.06908 23.5197,-13.89804 20.3125,-36.34867"
           id="path1393" />
        <path
           style="opacity:0.999;fill:none;fill-rule:evenodd;stroke:#000000;stroke-width:2.41984612;stroke-linecap:round;stroke-opacity:1;paint-order:markers stroke fill;stroke-miterlimit:4;stroke-dasharray:none"
           d="m 1113.9794,878.78219 c 0,0 -17.1053,45.97038 -59.8684,37.41775 0,0 -40.6249,-10.69078 -28.8651,-45.97036 0,0 2.1382,-74.83546 102.6315,-87.6644"
           id="path1395" />
        <path
           style="opacity:0.999;fill:none;fill-rule:evenodd;stroke:#000000;stroke-width:2.41984612;stroke-linecap:round;stroke-opacity:1;paint-order:markers stroke fill;stroke-miterlimit:4;stroke-dasharray:none"
           d="m 1312.8279,868.09141 c 0,0 31.0033,9.62171 36.3487,-1.06907 0,0 -49.1776,-319.65435 172.1216,-320.72342"
           id="path1397" />
        <path
           style="opacity:0.999;fill:none;fill-rule:evenodd;stroke:#000000;stroke-width:2.41984612;stroke-linecap:round;stroke-opacity:1;paint-order:markers stroke fill;stroke-miterlimit:4;stroke-dasharray:none"
           d="m 1349.1766,871.29867 c 0,0 14.9671,9.6217 39.5559,0 0,0 7.4835,-2.13817 21.3815,4.2763 0,0 16.0362,-13.89801 33.1415,4.27632"
           id="path1399" />
        <path
           style="opacity:0.999;fill:none;fill-rule:evenodd;stroke:#000000;stroke-width:2.41984612;stroke-linecap:round;stroke-opacity:1;paint-order:markers stroke fill;stroke-miterlimit:4;stroke-dasharray:none"
           d="m 1442.1864,880.92037 c 0,0 18.1743,2.13815 26.7269,-2.13818 0,0 24.5888,2.13817 28.8651,-2.13814 l 8.5104,0.18948 c 0,0 9.0714,-62.74404 81.6428,-83.15476 0,0 -18.1428,-15.11905 -24.1904,-18.89882 l -51.4048,-32.50594"
           id="path1401" />
        <path
           style="opacity:0.999;fill:none;fill-rule:evenodd;stroke:#000000;stroke-width:2.41984612;stroke-linecap:round;stroke-opacity:1;paint-order:markers stroke fill;stroke-miterlimit:4;stroke-dasharray:none"
           d="m 1513.8483,743.02996 -18.1428,-25.70238"
           id="path1403" />
        <path
           style="opacity:0.999;fill:none;fill-rule:evenodd;stroke:#000000;stroke-width:2.41984612;stroke-linecap:round;stroke-opacity:1;paint-order:markers stroke fill;stroke-miterlimit:4;stroke-dasharray:none"
           d="m 1496.4614,717.32758 c -35.5298,-40.06548 26.4583,-170.84524 26.4583,-170.84524 0,0 30.2381,-24.19048 39.3096,-20.41071"
           id="path1405" />
        <path
           style="opacity:0.999;fill:none;fill-rule:evenodd;stroke:#000000;stroke-width:2.41984612;stroke-linecap:round;stroke-opacity:1;paint-order:markers stroke fill;stroke-miterlimit:4;stroke-dasharray:none"
           d="m 1567.5209,532.8752 c 0,0 -24.9464,-30.2381 5.2917,-49.89286"
           id="path1407" />
        <path
           style="opacity:0.999;fill:none;fill-rule:evenodd;stroke:#000000;stroke-width:2.41984612;stroke-linecap:round;stroke-opacity:1;paint-order:markers stroke fill;stroke-miterlimit:4;stroke-dasharray:none"
           d="m 1568.2769,482.98234 c 0,0 48.3809,-27.21428 48.3809,23.43453"
           id="path1409" />
        <path
           style="opacity:0.999;fill:none;fill-rule:evenodd;stroke:#000000;stroke-width:2.41984612;stroke-linecap:round;stroke-opacity:1;paint-order:markers stroke fill;stroke-miterlimit:4;stroke-dasharray:none"
           d="m 1586.4197,499.61329 c 0,0 -14.363,11.33929 0,16.63096 0,0 18.1429,11.33928 30.9941,-8.31548 0,0 97.5178,-2.26786 151.9464,65.76786 0,0 35.2704,57.81923 33.7585,70.67042"
           id="path1411" />
        <path
           style="opacity:0.999;fill:none;fill-rule:evenodd;stroke:#000000;stroke-width:2.41984612;stroke-linecap:round;stroke-opacity:1;paint-order:markers stroke fill;stroke-miterlimit:4;stroke-dasharray:none"
           d="m 1800.3543,641.73234 c 0,0 37.7976,31.75 19.6547,99.78571 0,0 12.0953,-9.07142 15.1191,8.31548 0,0 31.75,28.72619 4.5357,58.20833"
           id="path1413" />
        <path
           style="opacity:0.999;fill:none;fill-rule:evenodd;stroke:#000000;stroke-width:2.41984612;stroke-linecap:round;stroke-opacity:1;paint-order:markers stroke fill;stroke-miterlimit:4;stroke-dasharray:none"
           d="m 1852.515,783.09543 c 0,0 47.625,30.2381 -3.7798,80.8869 0,0 -46.869,21.92263 -63.5,-12.09523"
           id="path1415" />
        <path
           style="opacity:0.999;fill:none;fill-rule:evenodd;stroke:#000000;stroke-width:2.41984612;stroke-linecap:round;stroke-opacity:1;paint-order:markers stroke fill;stroke-miterlimit:4;stroke-dasharray:none"
           d="m 1573.5685,797.45853 c 0,0 22.6786,-1.51191 27.9703,28.72619"
           id="path1417" />
        <path
           style="opacity:0.999;fill:none;fill-rule:evenodd;stroke:#000000;stroke-width:2.41984612;stroke-linecap:round;stroke-opacity:1;paint-order:markers stroke fill;stroke-miterlimit:4;stroke-dasharray:none"
           d="m 1585.6638,825.42875 c 0,0 99.7857,25.7024 114.1488,19.65479 0,0 67.2798,-7.55953 74.8393,11.33928 0,0 35.5297,38.55357 -43.0893,65.0119 0,0 -111.125,36.28572 -224.5179,-49.1369"
           id="path1419" />
        <path
           style="opacity:0.999;fill:none;fill-rule:evenodd;stroke:#000000;stroke-width:2.41984612;stroke-linecap:round;stroke-opacity:1;paint-order:markers stroke fill;stroke-miterlimit:4;stroke-dasharray:none"
           d="m 1654.4554,702.96448 c 0,0 24.9465,-25.70238 31.75,-21.92262"
           id="path1421" />
        <path
           style="opacity:0.999;fill:none;fill-rule:evenodd;stroke:#000000;stroke-width:2.41984612;stroke-linecap:round;stroke-opacity:1;paint-order:markers stroke fill;stroke-miterlimit:4;stroke-dasharray:none"
           d="m 1780.6995,671.97043 c 0,0 29.4822,18.89881 24.1905,25.70238"
           id="path1423" />
        <path
           style="opacity:0.999;fill:none;fill-rule:evenodd;stroke:#000000;stroke-width:2.41984612;stroke-linecap:round;stroke-opacity:1;paint-order:markers stroke fill;stroke-miterlimit:4;stroke-dasharray:none"
           d="m 1708.884,758.90496 c 9.0715,-0.75595 -3.0238,-31.75 -3.0238,-31.75 -24.1905,-30.99405 -29.4821,0.75595 -29.4821,0.75595 0,0 -4.5357,24.19048 2.2678,31.75 0,0 21.9226,5.29167 30.2381,-0.75595 z"
           id="path1425" />
        <path
           id="path1427"
           d="m 1795.0626,748.32163 c 9.0714,-0.75595 -3.0238,-31.75 -3.0238,-31.75 -24.1905,-30.99405 -29.4822,0.75595 -29.4822,0.75595 0,0 -4.5357,24.19048 2.2679,31.75 0,0 21.9226,5.29167 30.2381,-0.75595 z"
           style="opacity:0.999;fill:none;fill-rule:evenodd;stroke:#000000;stroke-width:2.41984612;stroke-linecap:round;stroke-opacity:1;paint-order:markers stroke fill;stroke-miterlimit:4;stroke-dasharray:none" />
        <path
           style="opacity:0.999;fill:none;fill-rule:evenodd;stroke:#000000;stroke-width:2.41984612;stroke-linecap:round;stroke-opacity:1;paint-order:markers stroke fill;stroke-miterlimit:4;stroke-dasharray:none"
           d="m 1643.8721,750.58948 c 0,0 21.9226,-6.04762 33.2619,8.31548"
           id="path1429" />
        <path
           style="opacity:0.999;fill:none;fill-rule:evenodd;stroke:#000000;stroke-width:2.41984612;stroke-linecap:round;stroke-opacity:1;paint-order:markers stroke fill;stroke-miterlimit:4;stroke-dasharray:none"
           d="m 1733.0745,767.97639 c 0,0 33.2619,-24.94643 57.4524,9.07142"
           id="path1431" />
        <path
           style="opacity:0.999;fill:none;fill-rule:evenodd;stroke:#000000;stroke-width:2.41984612;stroke-linecap:round;stroke-opacity:1;paint-order:markers stroke fill;stroke-miterlimit:4;stroke-dasharray:none"
           d="m 1808.6697,782.33948 c -10.5833,-18.14286 -37.7976,10.58333 -37.7976,10.58333 6.8036,3.02382 3.0238,13.60715 22.6786,15.11905 3.7798,-8.31547 19.6548,5.29166 15.119,-25.70238 z"
           id="path1433" />
        <path
           style="opacity:0.999;fill:none;fill-rule:evenodd;stroke:#000000;stroke-width:2.41984612;stroke-linecap:round;stroke-opacity:1;paint-order:markers stroke fill;stroke-miterlimit:4;stroke-dasharray:none"
           d="m 1758.0209,685.57758 c 0,0 -36.2857,18.14285 -12.0952,77.10714"
           id="path1435" />
        <path
           style="opacity:0.999;fill:none;fill-rule:evenodd;stroke:#000000;stroke-width:2.41984612;stroke-linecap:round;stroke-opacity:1;paint-order:markers stroke fill;stroke-miterlimit:4;stroke-dasharray:none"
           d="m 1773.8959,850.37521 c 0,0 29.4822,3.77975 31.75,-45.35716"
           id="path1437" />
        <path
           style="opacity:0.999;fill:none;fill-rule:evenodd;stroke:#000000;stroke-width:2.41984612;stroke-linecap:round;stroke-opacity:1;paint-order:markers stroke fill;stroke-miterlimit:4;stroke-dasharray:none"
           d="m 1806.4019,818.62521 c 0,0 40.8214,-31.75001 45.3571,16.63094"
           id="path1439" />
        <path
           style="opacity:0.999;fill:none;fill-rule:evenodd;stroke:#000000;stroke-width:2.41984612;stroke-linecap:round;stroke-opacity:1;paint-order:markers stroke fill;stroke-miterlimit:4;stroke-dasharray:none"
           d="m 1717.9554,531.36329 c 0,0 35.5298,-29.48214 71.8155,12.09524 0,0 15.875,23.43453 -15.119,21.16667 -1.5119,-1.51191 -28.7262,-3.77976 -24.1905,-24.19048 0,0 -1.5119,-12.09524 19.6548,1.51191"
           id="path1441" />
        <path
           style="opacity:0.999;fill:none;fill-rule:evenodd;stroke:#000000;stroke-width:2.41984612;stroke-linecap:round;stroke-opacity:1;paint-order:markers stroke fill;stroke-miterlimit:4;stroke-dasharray:none"
           d="m 1820.64,677.79552 c 0,0 17.1053,11.75986 20.3125,-9.6217 0,0 31.0033,8.55263 27.796,84.45717 0,0 -7.4835,3.20724 6.4145,21.38156 0,0 8.5526,27.79603 3.2072,40.62497 0,0 50.2467,164.63803 -107.9768,145.39462 0,0 -28.8652,62.00656 -94.0789,50.24666"
           id="path1443" />
        <path
           style="opacity:0.999;fill:none;fill-rule:evenodd;stroke:#000000;stroke-width:2.41984612;stroke-linecap:round;stroke-opacity:1;paint-order:markers stroke fill;stroke-miterlimit:4;stroke-dasharray:none"
           d="m 1677.3836,1011.3479 c -68.421,18.1743 -63.0757,0 -71.6283,1.0691 l -11.7598,-13.89804 -16.0362,13.89804 c 0,0 -59.8684,59.8683 -134.7038,17.1052"
           id="path1445" />
        <path
           style="opacity:0.999;fill:none;fill-rule:evenodd;stroke:#000000;stroke-width:2.41984612;stroke-linecap:round;stroke-opacity:1;paint-order:markers stroke fill;stroke-miterlimit:4;stroke-dasharray:none"
           d="m 1402.6305,1020.9696 c 0,0 20.3125,-41.69405 34.2105,-8.5526 l 8.5526,18.1743"
           id="path1447" />
        <path
           style="opacity:0.999;fill:none;fill-rule:evenodd;stroke:#000000;stroke-width:2.41984612;stroke-linecap:round;stroke-opacity:1;paint-order:markers stroke fill;stroke-miterlimit:4;stroke-dasharray:none"
           d="m 1402.6305,1019.9005 c -19.2434,60.9375 -85.5263,11.7599 -85.5263,11.7599 l -44.9013,16.0361 c 0,0 -25.6578,19.2434 -33.1414,-29.9341 l -3.2072,-13.8981 c 0,0 -49.1776,12.829 -49.1776,23.5198 0,0 -12.8289,-3.2073 -35.2796,27.796 0,0 -49.1776,-25.6579 -69.4901,1.0691 0,0 -17.1052,-44.9013 -11.7598,-53.4539 0,0 -38.4868,-10.69081 -44.9013,9.6217 0,0 -18.1743,-16.0362 -20.3125,-5.3454 0,0 -17.10522,-43.83222 -5.34536,-72.69733 0,0 -13.89802,-69.49008 8.55266,-79.11178 0,0 -18.17436,-25.65788 5.3454,-59.86837 0,0 -26.727,-71.62824 69.49,-101.56243"
           id="path1449" />
        <path
           style="fill:#f7e83b;fill-opacity:1;stroke:#000000;stroke-width:2.41984612;stroke-miterlimit:4;stroke-dasharray:none;stroke-opacity:1"
           d="m 1767.2274,847.07314 c -8.5186,-4.1992 -19.9751,-5.33206 -45.7702,-4.52585 -13.2486,0.4141 -28.1111,0.71638 -33.0279,0.6718 -10.496,-0.0951 -31.7802,-3.65061 -61.7485,-10.31478 -11.8308,-2.63086 -21.8133,-4.78337 -22.1833,-4.78337 -0.3702,0 -0.673,-0.73679 -0.673,-1.63735 0,-3.15868 -4.3829,-14.60574 -7.2551,-18.94867 -1.5956,-2.4126 -5.0192,-5.73034 -7.608,-7.37277 -3.9614,-2.51314 -4.3847,-3.08965 -2.6728,-3.63918 6.5195,-2.09267 6.6787,-1.76052 -5.5447,-11.57108 -6.4154,-5.14908 -23.7032,-17.00369 -38.4172,-26.34361 -29.2788,-18.58502 -26.4683,-15.98324 -41.7641,-38.6625 -8.3319,-12.35385 -10.414,-17.38667 -12.2898,-29.70668 -3.5425,-23.26733 6.4031,-68.60738 25.6852,-117.09328 10.566,-26.56859 10.9351,-27.03388 30.8722,-38.91905 10.0725,-6.00453 15.9747,-7.77848 17.4009,-5.23002 0.4858,0.86813 1.8305,2.73781 2.9881,4.15486 1.706,2.08825 2.3664,2.31926 3.4847,1.2191 1.1258,-1.10747 1.0294,-1.89482 -0.5234,-4.27631 -6.1867,-9.48862 -9.1517,-19.89825 -7.7682,-27.27295 0.9278,-4.94562 6.2624,-12.77718 10.8154,-15.87776 2.0444,-1.39223 3.7204,-3.11927 3.7244,-3.83783 0.016,-2.9087 18.1296,-6.3147 24.4833,-4.60383 8.6678,2.334 15.0799,12.97567 15.0799,25.02686 0,5.4383 -1.3622,7.60008 -6.7953,10.7841 -5.9782,3.50345 -12.245,3.5265 -19.6644,0.0723 -6.7073,-3.12272 -7.1368,-5.17742 -2.2465,-10.74721 2.5803,-2.93876 3.0726,-4.12742 2.1088,-5.0913 -1.6556,-1.65558 -4.1761,-0.0891 -7.3458,4.5656 -4.8686,7.14933 -1.9787,13.09899 8.0166,16.50476 10.5471,3.59373 19.7895,1.55482 26.8271,-5.9182 4.1964,-4.45598 3.2066,-4.38317 25.8265,-1.8995 34.5233,3.79069 71.1594,17.03589 95.6824,34.5925 10.4532,7.48358 27.1541,23.32688 30.9734,29.3828 14.92,23.65682 34.4105,63.06269 31.6471,63.98387 -1.9967,0.66555 -1.2902,2.15709 4.2719,9.01911 17.8272,21.99336 23.4432,55.30964 14.9067,88.43087 -1.1308,4.38753 -1.8626,8.17081 -1.6261,8.40729 0.2365,0.23649 2.0756,-0.58708 4.0869,-1.83012 5.0955,-3.1492 7.8299,-2.89954 9.7916,0.89403 0.8971,1.73479 1.6311,3.70557 1.6311,4.37954 0,0.67395 1.9316,3.41979 4.2924,6.10185 5.8076,6.59775 10.6595,16.79297 11.3982,23.95095 0.7797,7.55417 -1.719,16.33858 -6.3938,22.47813 -3.501,4.5979 -3.5434,4.61671 -11.7103,5.19972 -6.6366,0.47377 -9.6538,1.33284 -15.8543,4.51409 l -7.6578,3.92895 0.7274,-5.48306 c 0.4,-3.0157 1.4224,-6.82721 2.272,-8.47003 0.9665,-1.86915 1.5446,-6.16604 1.5446,-11.48194 0,-8.41999 -0.034,-8.52487 -3.861,-11.88492 -3.3975,-2.98307 -4.5221,-3.35936 -9.3688,-3.13484 -5.368,0.24866 -5.6568,0.10668 -11.3734,-5.59358 -3.226,-3.21681 -8.271,-7.02763 -11.2109,-8.46849 -4.7031,-2.30497 -6.7805,-2.6198 -17.2876,-2.6198 h -11.9422 l -2.2791,-7.48356 c -7.7391,-25.4123 -4.0999,-46.53486 10.174,-59.05275 6.0455,-5.30177 7.2542,-7.76462 3.8107,-7.76462 -3.7824,0 -12.6795,9.31783 -16.6681,17.45631 -7.0417,14.36822 -7.4524,31.07256 -1.256,51.08795 l 2.5204,8.14138 -5.7194,2.80506 c -5.2835,2.59128 -7.0947,5.05942 -4.7679,6.49743 0.5233,0.32343 3.2173,-0.67831 5.9867,-2.22615 2.7693,-1.54781 5.829,-2.89931 6.7993,-3.00326 0.9702,-0.10404 3.2073,-0.8055 4.9713,-1.5589 1.764,-0.75343 6.226,-1.38213 9.9156,-1.39713 8.362,-0.034 18.3739,4.51768 24.2543,11.02664 l 3.9313,4.35147 -4.618,2.95346 c -2.54,1.62439 -7.1371,5.23264 -10.2159,8.01833 l -5.5979,5.06487 3.4597,3.47409 c 1.9028,1.91074 4.3231,4.75744 5.3785,6.32602 2.4885,3.6988 7.102,6.03081 13.4086,6.77776 3.8773,0.45921 5.39,0.19661 6.4879,-1.12626 0.7874,-0.94882 2.8217,-1.72511 4.5206,-1.72511 3.0221,0 3.0751,0.0985 2.4472,4.54359 -3.2753,23.18551 -11.675,34.70523 -26.9573,36.97054 -3.8318,0.56799 -5.9657,0.28628 -8.9409,-1.18036 z m -60.9838,-84.73646 c 6.9906,-2.07597 8.1265,-4.11056 7.3895,-13.23501 -0.9657,-11.95446 -4.7079,-22.00863 -10.5853,-28.43948 -8.4353,-9.22957 -16.0591,-11.44305 -22.0499,-6.40205 -5.0665,4.26318 -6.8246,10.11868 -7.4275,24.73818 l -0.5351,12.97432 -4.4039,-1.91088 c -9.1083,-3.95213 -25.3541,-3.67538 -26.1477,0.4454 -0.357,1.8541 0.1234,1.95196 6.2056,1.26384 8.1788,-0.92533 16.8874,0.77205 21.6194,4.2138 1.9473,1.41629 4.5927,3.34825 5.8789,4.29324 4.8227,3.54351 21.2639,4.66963 30.056,2.05864 z m 87.1987,-10.9052 c 3.6031,-1.29151 5.5235,-2.68954 6.2485,-4.54885 1.4491,-3.71623 0.317,-12.83083 -2.8708,-23.11286 -2.2723,-7.32941 -3.544,-9.53868 -8.2307,-14.29996 -9.0675,-9.21157 -15.4296,-10.75063 -21.6963,-5.24843 -5.3499,4.69725 -7.3565,12.1571 -7.4464,27.68253 -0.092,15.96522 1.1305,18.61799 9.2672,20.1014 9.2599,1.68818 19.0519,1.46095 24.7285,-0.57383 z m -133.4409,-50.62079 c 9.3254,-9.63489 21.5515,-18.08435 26.1675,-18.08435 1.5941,0 2.1561,-0.55687 1.8883,-1.8709 -0.6751,-3.31192 -7.6259,-2.17538 -14.1419,2.31233 -8.7547,6.02959 -22.5016,19.23486 -21.5786,20.72833 1.3631,2.20562 3.2972,1.42708 7.6647,-3.08541 z m 146.9546,-3.12968 c 1.5309,-2.86038 -0.8935,-7.97563 -6.189,-13.05809 -5.5521,-5.32889 -18.4186,-14.72554 -20.163,-14.72554 -2.8581,0 -1.3624,3.7914 2.5304,6.41448 11.4735,7.73104 21.4887,18.02209 19.9547,20.50423 -0.6731,1.0891 0.4433,3.01548 1.7476,3.01548 0.5326,0 1.4863,-0.96777 2.1193,-2.15056 z"
           id="path1451" />
        <path
           style="fill:#f7e83b;fill-opacity:1;stroke:#000000;stroke-width:2.41984612;stroke-miterlimit:4;stroke-dasharray:none;stroke-opacity:1"
           d="m 1324.2606,868.64312 c -9.9084,-2.21766 -9.0643,-1.4159 -7.3805,-7.01064 2.7315,-9.07632 2.0232,-13.73595 -3.847,-25.30856 -7.4059,-14.60005 -15.0239,-25.30462 -25.6557,-36.05078 -25.0158,-25.28485 -58.674,-39.66974 -102.6315,-43.86281 -15.3482,-1.46407 -39.9284,-0.72551 -56.1266,1.68643 -5.8799,0.87551 -12.6151,1.87994 -14.9671,2.23205 -4.2567,0.63728 -4.2928,0.61286 -7.8843,-5.34463 -9.0481,-15.00884 -15.289,-30.71395 -18.96,-47.71234 -2.9193,-13.51794 -2.7122,-41.74543 0.4096,-55.82515 5.3527,-24.14157 12.9352,-41.38004 28.5437,-64.89346 13.9424,-21.0035 24.1266,-33.4374 41.6291,-50.82513 29.5757,-29.38174 55.2902,-43.36722 86.3495,-46.96338 48.6725,-5.63552 102.6183,-4.56015 129.1639,2.57474 4.4099,1.1853 11.5465,2.90568 15.859,3.82304 16.6526,3.54243 36.2502,11.90186 50.8614,21.69512 9.1633,6.14182 21.4843,18.34626 27.2734,27.01546 l 4.3771,6.55487 -9.262,3.1124 c -62.4946,21.00059 -102.7118,81.78787 -115.1771,174.08726 -5.2417,38.81273 -5.3601,87.52009 -0.3338,137.31401 0.1279,1.26672 -0.832,2.61464 -2.4631,3.45874 -3.012,1.55871 -13.3324,1.68537 -19.778,0.24276 z"
           id="path1453" />
        <path
           style="fill:#f7e83b;fill-opacity:1;stroke:#000000;stroke-width:2.41984612;stroke-miterlimit:4;stroke-dasharray:none;stroke-opacity:1"
           d="m 1647.1222,925.81682 c -44.7597,-4.20944 -95.5025,-23.53154 -131.3567,-50.01855 -6.9002,-5.09749 -6.8105,-4.08543 -1.506,-16.98453 9.4717,-23.03224 31.2206,-45.19335 54.8818,-55.92186 6.6196,-3.00146 7.6932,-3.19847 11.3918,-2.09034 7.6496,2.29188 15.2145,11.13896 17.8237,20.84483 0.6234,2.31891 0.9592,4.39047 0.7462,4.60348 -0.213,0.21302 -3.393,-0.39155 -7.0666,-1.34347 -4.7164,-1.22214 -7.0133,-1.39684 -7.8157,-0.59447 -0.7167,0.71679 -0.7613,1.50339 -0.1207,2.13048 1.2845,1.25722 16.6152,5.13287 44.455,11.23823 39.9267,8.7561 46.5021,9.68693 65.0721,9.21176 59.9035,-1.53278 70.6043,-0.11329 78.9933,10.47867 11.2465,14.19981 9.9667,29.27733 -3.5259,41.53982 -23.321,21.19476 -70.9599,31.70346 -121.9723,26.90595 z"
           id="path1455" />
        <path
           style="fill:#f7e83b;fill-opacity:1;stroke:#000000;stroke-width:2.41984612;stroke-miterlimit:4;stroke-dasharray:none;stroke-opacity:1"
           d="m 1052.0353,913.05099 c -13.8585,-4.90304 -23.7278,-14.56999 -26.082,-25.54697 -2.333,-10.87853 4.9825,-38.88359 13.9738,-53.49396 14.6203,-23.75707 43.4447,-41.73532 75.8135,-47.28594 l 7.2901,-1.25013 10.4726,10.14188 c 15.4275,14.9402 33.4837,28.55026 54.9531,41.42155 10.0071,5.9994 11.6462,6.50608 11.6462,3.60005 0,-1.23891 -2.5502,-3.39682 -7.2163,-6.10618 -10.4335,-6.05825 -29.5492,-19.0454 -38.2195,-25.96624 -12.7154,-10.14971 -25.1233,-22.76099 -25.1233,-25.53501 0,-1.89596 -0.5961,-2.48307 -2.5207,-2.48307 -1.8482,0 -4.1691,-2.06774 -8.6997,-7.75081 l -6.179,-7.75083 6.8288,-1.25299 c 21.691,-3.98002 55.7586,-4.86476 76.2986,-1.98146 54.3157,7.62457 93.5707,34.46928 114.8607,78.54791 2.399,4.96683 4.3618,10.29173 4.3618,11.83309 0,9.31161 -7.6905,22.03844 -16.8131,27.82385 -10.3724,6.57796 -36.1574,14.50297 -57.0905,17.54674 -21.9129,3.18625 -54.0954,1.895 -77.7784,-3.12068 -19.6185,-4.15486 -47.1666,-13.69433 -47.1666,-16.33302 0,-1.12162 -0.7052,-1.40973 -2.379,-0.97203 -1.6592,0.43392 -6.0527,-1.30738 -14.521,-5.75524 -6.6781,-3.50753 -12.5833,-6.37736 -13.1226,-6.37736 -0.5393,0 -0.9806,0.92877 -0.9806,2.06391 0,1.55869 3.0084,3.5869 12.2896,8.28538 6.7594,3.42177 12.2918,6.74819 12.2944,7.39203 0.01,2.45443 -8.4717,14.03472 -14.2537,19.46106 -12.3593,11.59909 -28.9561,15.79091 -42.9372,10.84447 z"
           id="path1457" />
        <path
           style="fill:#f7e83b;fill-opacity:1;stroke:#000000;stroke-width:2.41984612;stroke-miterlimit:4;stroke-dasharray:none;stroke-opacity:1"
           d="m 1686.5331,758.9878 c -6.973,-1.09831 -7.3905,-1.38727 -8.6408,-5.98035 -1.9072,-7.00617 -0.4277,-23.52617 2.7233,-30.40883 4.1525,-9.07031 9.2452,-9.01319 18.2447,0.2046 4.5386,4.64881 5.8405,6.92015 7.8543,13.70367 1.3276,4.4722 2.6813,10.72251 3.0082,13.8896 l 0.5943,5.75833 -4.4301,1.77255 c -4.1109,1.64489 -12.6669,2.11368 -19.3539,1.06043 z"
           id="path1459" />
        <path
           style="fill:#f7e83b;fill-opacity:1;stroke:#000000;stroke-width:2.41984612;stroke-miterlimit:4;stroke-dasharray:none;stroke-opacity:1"
           d="m 1770.6687,747.97661 c -2.2349,-0.43268 -4.6403,-1.36544 -5.3454,-2.07278 -0.8618,-0.86452 -1.282,-5.73542 -1.282,-14.85929 0,-12.35625 0.2396,-14.04694 2.6727,-18.85725 1.47,-2.90623 3.4401,-5.74333 4.3781,-6.30462 3.0535,-1.82729 7.7757,0.41402 13.895,6.59508 5.4461,5.50095 6.2215,6.88663 8.3692,14.95523 1.3018,4.8909 2.4548,10.90274 2.5621,13.35963 0.1798,4.11324 -0.1012,4.61545 -3.5465,6.34016 -3.9335,1.969 -13.8915,2.3562 -21.7032,0.84384 z"
           id="path1461" />
        <path
           style="fill:#000000;fill-opacity:1;stroke:#000000;stroke-width:2.41984612;stroke-miterlimit:4;stroke-dasharray:none;stroke-opacity:1"
           d="m 1785.4229,804.19943 c -3.2952,-1.50387 -6.3683,-4.55208 -9.2576,-9.18247 -1.5968,-2.55916 -1.5023,-2.75426 3.2721,-6.75587 15.7665,-13.21451 27.9016,-12.34403 27.9016,2.00146 0,7.21141 -1.713,11.02781 -5.2614,11.72205 -1.5162,0.29665 -4.2,1.0555 -5.9639,1.68632 -5.4521,1.94977 -7.3691,2.04452 -10.6908,0.52851 z"
           id="path1463" />
        <path
           style="fill:#b02b2b;fill-opacity:1;stroke:#000000;stroke-width:2.41984612;stroke-miterlimit:4;stroke-dasharray:none;stroke-opacity:1"
           d="m 1441.3191,875.20319 c -7.7564,-6.9329 -19.0036,-8.66153 -27.5615,-4.23605 -3.0553,1.57996 -3.8337,1.58146 -9.4061,0.018 -7.7765,-2.18197 -15.6446,-2.16863 -21.5694,0.0366 -5.8097,2.16236 -22.3844,2.54659 -27.7433,0.64313 l -3.822,-1.35755 -2.0503,-21.09314 c -2.7854,-28.65409 -2.8159,-80.88159 -0.062,-105.55031 4.9405,-44.25154 13.7207,-77.15872 28.525,-106.90781 27.0436,-54.34398 71.1859,-83.92739 131.0008,-87.79451 l 11.0325,-0.71327 -5.2466,12.38028 c -13.7514,32.44882 -24.1914,66.19468 -29.009,93.7673 -1.8932,10.83511 -1.8819,37.36774 0.019,44.90127 2.1026,8.33266 6.117,15.82915 16.03,29.9342 4.7523,6.76192 8.658,12.77548 8.6794,13.36346 0.022,0.58801 12.418,8.86497 27.5479,18.39326 15.13,9.5283 31.5982,20.57339 36.5962,24.5447 l 9.0871,7.22051 -5.3454,1.6578 c -8.7116,2.70179 -26.6066,12.70166 -35.5848,19.88516 -16.9935,13.59648 -30.6313,33.8347 -36.1318,53.6191 l -1.8125,6.51897 -4.9294,0.66063 c -5.1425,0.68919 -29.3729,2.47433 -45.02,3.31677 l -9.0871,0.48927 -4.1369,-3.69766 z"
           id="path1465" />
        <path
           style="fill:#ffffff;stroke:#000000;stroke-width:2.41984612;stroke-miterlimit:4;stroke-dasharray:none;stroke-opacity:1"
           d="m 1078.2292,1038.4769 c -5.2098,-16.2936 -7.7218,-29.4545 -6.3236,-33.1319 0.5372,-1.4129 0.9767,-2.9643 0.9767,-3.4474 0,-1.5198 -14.0486,-3.72195 -23.5197,-3.68663 -10.893,0.0406 -16.0241,1.59494 -21.4515,6.49823 l -4.0668,3.6741 -4.4842,-2.9675 c -2.5589,-1.6934 -6.6052,-3.2115 -9.4242,-3.5358 l -4.94,-0.5684 -3.048,-11.75986 c -4.0983,-15.81226 -5.0675,-36.19825 -2.2831,-48.02179 1.6217,-6.88652 1.7165,-9.1553 0.6608,-15.82285 -2.31733,-14.6353 -3.30942,-33.1316 -2.3002,-42.88391 1.35925,-13.13468 3.5689,-19.16668 8.5979,-23.47134 l 4.1373,-3.54142 -2.6602,-5.37546 c -3.9341,-7.94938 -5.3739,-18.29692 -3.8127,-27.40126 1.2005,-7.00056 6.5862,-20.26621 10.0528,-24.76119 1.3995,-1.81459 1.3919,-2.74359 -0.065,-8.01809 -2.3387,-8.46548 -2.2277,-26.63767 0.213,-34.83078 7.2746,-24.42104 25.7251,-42.51751 55.6531,-54.58547 5.0185,-2.02362 9.5064,-3.6793 9.9731,-3.6793 0.4667,0 1.4365,3.7284 2.1551,8.28535 3.6457,23.11868 16.9867,51.64201 32.9433,70.43314 l 4.659,5.48666 -10.3986,2.39356 c -47.3496,10.89906 -78.4214,39.884 -85.3772,79.64294 -0.8229,4.70395 -1.7588,9.3871 -2.0797,10.40704 -0.3208,1.01994 -0.5834,5.00023 -0.5834,8.84513 0,13.05584 7.8248,24.3088 21.8549,31.43009 13.2112,6.70568 28.8854,6.83699 42.2123,0.35369 7.8616,-3.8246 18.0625,-13.43683 23.8259,-22.45121 2.533,-3.96174 4.7046,-7.35764 4.8257,-7.5464 0.1211,-0.18878 7.1589,2.05362 15.6395,4.98309 28.3564,9.79519 52.5871,14.01426 80.6802,14.04813 28.1573,0.0339 53.394,-4.40492 76.3789,-13.4342 11.1291,-4.37186 18.4396,-9.18831 23.3427,-15.37895 3.0253,-3.81977 3.5233,-4.05559 6.7241,-3.18437 6.4796,1.76371 19.1887,2.79755 24.3537,1.98109 4.0116,-0.63415 6.3876,-0.34559 10.7253,1.3026 8.2494,3.13455 17.1902,3.61019 26.6425,1.41735 12.9029,-2.99334 18.6212,-3.13024 25.5299,-0.61119 l 6.0767,2.21567 5.2249,-2.6452 c 2.8737,-1.45486 6.741,-2.64519 8.5938,-2.64519 4.5702,0 14.7249,5.29262 16.0467,8.36353 1.0494,2.43787 1.2858,2.47279 12.829,1.89611 33.9688,-1.69707 54.2134,-3.58524 55.1926,-5.14779 0.3805,-0.60719 4.7651,1.68363 10.1562,5.30641 36.5571,24.56579 74.5477,39.37904 117.6718,45.88245 16.6069,2.50444 54.6254,2.52357 70.5556,0.0355 15.676,-2.44837 26.2348,-5.20504 37.4495,-9.77723 36.3938,-14.83759 49.0553,-36.57806 34.9473,-60.0066 -2.0053,-3.33015 -3.646,-6.18445 -3.646,-6.34288 0,-0.15843 1.6523,-0.48093 3.6717,-0.7167 3.0141,-0.35187 3.8715,0.01 4.7871,2.01924 1.9984,4.38598 10.0421,12.20037 15.5526,15.10914 5.0344,2.65748 6.3011,2.8443 19.2863,2.8443 11.518,0 15.2711,-0.4246 21.9161,-2.47939 7.2477,-2.24115 8.6858,-3.1773 14.9671,-9.7432 23.8323,-24.91197 25.3443,-53.47089 3.8934,-73.5372 -5.9052,-5.52403 -6.9033,-7.01821 -7.5446,-11.29501 -0.9096,-6.06534 -5.7661,-15.99319 -10.5919,-21.65202 -1.9873,-2.33045 -4.6208,-6.52428 -5.8522,-9.31963 -2.3293,-5.28741 -6.1709,-7.86138 -10.1716,-6.81516 -1.6112,0.42134 -1.8866,0.0701 -1.4171,-1.8078 2.13,-8.51929 3.0086,-20.15463 2.5576,-33.86857 -0.2803,-8.52588 -0.8226,-16.22324 -1.2051,-17.10523 -0.5646,-1.30204 0.291,-1.60361 4.5495,-1.60361 5.9831,0 9.1329,-2.1303 11.5315,-7.79907 l 1.4905,-3.52272 3.0166,2.14797 c 6.7738,4.8234 13.5202,17.12955 17.1312,31.24954 3.5072,13.71404 5.7495,45.9023 3.3029,47.41434 -0.5879,0.3634 -1.069,2.70732 -1.069,5.20872 0,3.43072 1.0778,6.33494 4.3872,11.82216 5.6937,9.44026 8.9271,23.94688 7.9991,35.88848 -0.3428,4.40994 -0.6665,8.73972 -0.7196,9.62171 -0.053,0.88198 1.1252,7.31014 2.6182,14.2848 7.043,32.9021 5.3949,64.73171 -4.4793,86.50877 -10.5955,23.36795 -28.6763,36.55838 -57.5806,42.00673 -7.3741,1.38999 -13.6517,1.67193 -28.8969,1.29789 l -19.4761,-0.47789 -4.0436,6.96545 c -4.9841,8.58559 -19.9943,24.58542 -28.4547,30.3308 -15.2408,10.34986 -29.5915,14.26516 -49.0068,13.37066 -6.9536,-0.3204 -12.6428,-0.2263 -12.6428,0.209 0,0.7945 -14.9011,4.3057 -27.6905,6.5248 -3.7639,0.6531 -11.1469,1.1875 -16.4066,1.1875 -8.8176,0 -10.1597,-0.297 -17.2109,-3.8086 -6.0601,-3.018 -8.8381,-5.2676 -13.3831,-10.838 -5.7025,-6.989 -5.7487,-7.01805 -8.0181,-5.04133 -1.2554,1.0935 -5.8907,5.14633 -10.3006,9.00623 -17.0795,14.9493 -28.7858,22.5324 -44.494,28.8222 -26.3153,10.5373 -56.5438,9.6537 -82.8859,-2.4227 l -7.1087,-3.2589 -5.872,-12.5081 c -8.9949,-19.15994 -14.93,-22.97552 -25.405,-16.3325 -5.3934,3.4204 -14.4818,15.9061 -17.5028,24.0455 -3.64,9.8072 -13.4548,19.7639 -21.7543,22.0688 -13.4031,3.7224 -32.0767,-0.7797 -51.0789,-12.3148 -4.2961,-2.6079 -8.2108,-4.7416 -8.6994,-4.7416 -1.4961,0 -44.6811,15.6965 -48.2204,17.5267 -6.2599,3.2372 -13.6463,1.7835 -18.1891,-3.5797 -3.2574,-3.8456 -6.6882,-13.1681 -9.2638,-25.1723 -3.4838,-16.2372 -3.5943,-16.5708 -5.49,-16.5708 -3.1715,0 -28.9898,8.9106 -37.4514,12.9255 -4.7871,2.2714 -9.8638,5.5083 -11.2815,7.1931 -1.4177,1.6849 -3.9956,3.414 -5.7287,3.8425 -5.5857,1.381 -13.1177,7.0541 -22.2606,16.7666 l -8.9308,9.4872 -6.6046,-2.6837 c -15.8726,-6.4496 -36.3742,-8.7568 -47.652,-5.3627 -2.8207,0.8489 -6.9665,3.0205 -9.2129,4.8257 l -4.0843,3.2822 z"
           id="path1467" />
        <path
           style="fill:#f7e83b;fill-opacity:1;stroke:#000000;stroke-width:2.41984612;stroke-miterlimit:4;stroke-dasharray:none;stroke-opacity:1"
           d="m 1766.8715,559.87831 c -11.0806,-4.20769 -15.876,-10.12417 -14.553,-17.95505 0.8694,-5.1458 3.2298,-5.31733 11.7193,-0.85161 3.3515,1.76294 6.5274,2.93727 7.0576,2.60958 2.368,-1.46354 0.4742,-3.75467 -5.6212,-6.80063 -7.1247,-3.56021 -12.6674,-4.19786 -15.1252,-1.74001 -1.8724,1.87232 -3.2578,10.1147 -2.1746,12.93741 0.5418,1.41198 -0.7126,0.80804 -4.1186,-1.98295 -2.6937,-2.20728 -8.7915,-6.35351 -13.5506,-9.21382 -9.5496,-5.7395 -9.5632,-5.89558 -0.8409,-9.63438 17.4456,-7.47805 35.7255,-3.5824 51.6468,11.00651 9.8134,8.99224 12.7425,17.10457 7.793,21.58376 -3.5246,3.18976 -13.8906,3.20897 -22.2326,0.0412 z"
           id="path1469" />
        <path
           style="fill:#f7e83b;fill-opacity:1;stroke:#000000;stroke-width:2.41984612;stroke-miterlimit:4;stroke-dasharray:none;stroke-opacity:1"
           d="m 1804.1317,865.49696 c -3.5279,-1.568 -8.8075,-5.44333 -11.7323,-8.61185 l -5.3178,-5.76093 4.5831,-3.59884 c 5.637,-4.42647 13.5173,-17.30959 13.5281,-22.11646 0.01,-3.70409 19.2714,-14.62382 25.7974,-14.62382 6.6571,0 14.2419,8.21119 16.7367,18.11888 1.3402,5.32244 3.5081,9.67716 4.8174,9.67716 3.6426,0 0.3133,-17.14968 -4.6558,-23.98344 -4.2091,-5.78834 -4.2089,-5.83417 0.056,-12.82893 2.354,-3.86091 4.2836,-8.87135 4.288,-11.13433 0.01,-3.84471 0.3505,-3.79264 5.2329,0.79409 17.2239,16.18102 15.2582,42.14233 -4.8294,63.78313 -6.126,6.59969 -10.4001,9.02399 -19.2097,10.89597 -14.4866,3.07834 -21.3146,2.936 -29.2944,-0.61063 z"
           id="path1471" />
        <path
           style="opacity:0.999;fill:#000000;fill-opacity:1;fill-rule:evenodd;stroke:#000000;stroke-width:2.41984612;stroke-linecap:round;stroke-opacity:1;paint-order:markers stroke fill;stroke-miterlimit:4;stroke-dasharray:none"
           d="m 1682.1701,759.9394 1.5119,7.55952"
           id="path1473" />
        <path
           style="opacity:0.999;fill:#000000;fill-opacity:1;fill-rule:evenodd;stroke:#000000;stroke-width:2.41984612;stroke-linecap:round;stroke-opacity:1;paint-order:markers stroke fill;stroke-miterlimit:4;stroke-dasharray:none"
           d="m 1685.5719,760.31738 0.7559,7.18154"
           id="path1475" />
        <path
           style="opacity:0.999;fill:#000000;fill-opacity:1;fill-rule:evenodd;stroke:#000000;stroke-width:2.41984612;stroke-linecap:round;stroke-opacity:1;paint-order:markers stroke fill;stroke-miterlimit:4;stroke-dasharray:none"
           d="m 1690.1076,760.69534 0.378,6.42559"
           id="path1477" />
        <path
           style="opacity:0.999;fill:#000000;fill-opacity:1;fill-rule:evenodd;stroke:#000000;stroke-width:2.41984612;stroke-linecap:round;stroke-opacity:1;paint-order:markers stroke fill;stroke-miterlimit:4;stroke-dasharray:none"
           d="m 1694.6433,761.82927 0.378,5.29166"
           id="path1479" />
        <path
           id="path1481"
           d="m 1691.9219,760.31738 0.756,7.18154"
           style="opacity:0.999;fill:#000000;fill-opacity:1;fill-rule:evenodd;stroke:#000000;stroke-width:2.41984612;stroke-linecap:round;stroke-opacity:1;paint-order:markers stroke fill;stroke-miterlimit:4;stroke-dasharray:none" />
        <path
           style="opacity:0.999;fill:#000000;fill-opacity:1;fill-rule:evenodd;stroke:#000000;stroke-width:2.41984612;stroke-linecap:round;stroke-opacity:1;paint-order:markers stroke fill;stroke-miterlimit:4;stroke-dasharray:none"
           d="m 1697.7428,760.31738 0.756,7.18154"
           id="path1483" />
        <path
           id="path1485"
           d="m 1700.3886,760.31738 0.756,7.18154"
           style="opacity:0.999;fill:#000000;fill-opacity:1;fill-rule:evenodd;stroke:#000000;stroke-width:2.41984612;stroke-linecap:round;stroke-opacity:1;paint-order:markers stroke fill;stroke-miterlimit:4;stroke-dasharray:none" />
        <path
           style="opacity:0.999;fill:#000000;fill-opacity:1;fill-rule:evenodd;stroke:#000000;stroke-width:2.41984612;stroke-linecap:round;stroke-opacity:1;paint-order:markers stroke fill;stroke-miterlimit:4;stroke-dasharray:none"
           d="m 1702.5053,760.31738 0.756,7.18154"
           id="path1487" />
        <path
           id="path1489"
           d="m 1705.1512,760.31738 0.7559,7.18154"
           style="opacity:0.999;fill:#000000;fill-opacity:1;fill-rule:evenodd;stroke:#000000;stroke-width:2.41984612;stroke-linecap:round;stroke-opacity:1;paint-order:markers stroke fill;stroke-miterlimit:4;stroke-dasharray:none" />
        <path
           style="opacity:0.999;fill:#000000;fill-opacity:1;fill-rule:evenodd;stroke:#000000;stroke-width:2.41984612;stroke-linecap:round;stroke-opacity:1;paint-order:markers stroke fill;stroke-miterlimit:4;stroke-dasharray:none"
           d="m 1707.2678,760.31738 0.756,7.18154"
           id="path1491" />
        <path
           id="path1493"
           d="m 1709.3845,760.31738 0.756,7.18154"
           style="opacity:0.999;fill:#000000;fill-opacity:1;fill-rule:evenodd;stroke:#000000;stroke-width:2.41984612;stroke-linecap:round;stroke-opacity:1;paint-order:markers stroke fill;stroke-miterlimit:4;stroke-dasharray:none" />
        <path
           style="opacity:0.999;fill:#000000;fill-opacity:1;fill-rule:evenodd;stroke:#000000;stroke-width:2.41984612;stroke-linecap:round;stroke-opacity:1;paint-order:markers stroke fill;stroke-miterlimit:4;stroke-dasharray:none"
           d="m 1710.972,760.31738 0.756,7.18154"
           id="path1495" />
        <path
           id="path1497"
           d="m 1696.6844,760.31738 0.756,7.18154"
           style="opacity:0.999;fill:#000000;fill-opacity:1;fill-rule:evenodd;stroke:#000000;stroke-width:2.41984612;stroke-linecap:round;stroke-opacity:1;paint-order:markers stroke fill;stroke-miterlimit:4;stroke-dasharray:none" />
        <path
           style="opacity:0.999;fill:#000000;fill-opacity:1;fill-rule:evenodd;stroke:#000000;stroke-width:2.41984612;stroke-linecap:round;stroke-opacity:1;paint-order:markers stroke fill;stroke-miterlimit:4;stroke-dasharray:none"
           d="m 1688.7469,760.31738 0.756,7.18154"
           id="path1499" />
        <g
           style="stroke-width:2.41984612;stroke-miterlimit:4;stroke-dasharray:none;stroke:#000000;stroke-opacity:1"
           id="g1529"
           transform="rotate(-3.3182477,-6005.0128,-19743.917)">
          <path
             id="path1501"
             d="m 598.03409,1166.4346 -1.51191,7.5595"
             style="opacity:0.999;fill:#000000;fill-opacity:1;fill-rule:evenodd;stroke:#000000;stroke-width:2.41984612;stroke-linecap:round;stroke-opacity:1;paint-order:markers stroke fill;stroke-miterlimit:4;stroke-dasharray:none" />
          <path
             id="path1503"
             d="m 594.63231,1166.8125 -0.75597,7.1816"
             style="opacity:0.999;fill:#000000;fill-opacity:1;fill-rule:evenodd;stroke:#000000;stroke-width:2.41984612;stroke-linecap:round;stroke-opacity:1;paint-order:markers stroke fill;stroke-miterlimit:4;stroke-dasharray:none" />
          <path
             id="path1505"
             d="m 590.09659,1167.1905 -0.37799,6.4256"
             style="opacity:0.999;fill:#000000;fill-opacity:1;fill-rule:evenodd;stroke:#000000;stroke-width:2.41984612;stroke-linecap:round;stroke-opacity:1;paint-order:markers stroke fill;stroke-miterlimit:4;stroke-dasharray:none" />
          <path
             id="path1507"
             d="m 585.56086,1168.3244 -0.37796,5.2917"
             style="opacity:0.999;fill:#000000;fill-opacity:1;fill-rule:evenodd;stroke:#000000;stroke-width:2.41984612;stroke-linecap:round;stroke-opacity:1;paint-order:markers stroke fill;stroke-miterlimit:4;stroke-dasharray:none" />
          <path
             style="opacity:0.999;fill:#000000;fill-opacity:1;fill-rule:evenodd;stroke:#000000;stroke-width:2.41984612;stroke-linecap:round;stroke-opacity:1;paint-order:markers stroke fill;stroke-miterlimit:4;stroke-dasharray:none"
             d="m 588.28227,1166.8125 -0.75597,7.1816"
             id="path1509" />
          <path
             id="path1511"
             d="m 582.4614,1166.8125 -0.75597,7.1816"
             style="opacity:0.999;fill:#000000;fill-opacity:1;fill-rule:evenodd;stroke:#000000;stroke-width:2.41984612;stroke-linecap:round;stroke-opacity:1;paint-order:markers stroke fill;stroke-miterlimit:4;stroke-dasharray:none" />
          <path
             style="opacity:0.999;fill:#000000;fill-opacity:1;fill-rule:evenodd;stroke:#000000;stroke-width:2.41984612;stroke-linecap:round;stroke-opacity:1;paint-order:markers stroke fill;stroke-miterlimit:4;stroke-dasharray:none"
             d="m 579.81555,1166.8125 -0.75597,7.1816"
             id="path1513" />
          <path
             id="path1515"
             d="m 577.69887,1166.8125 -0.75597,7.1816"
             style="opacity:0.999;fill:#000000;fill-opacity:1;fill-rule:evenodd;stroke:#000000;stroke-width:2.41984612;stroke-linecap:round;stroke-opacity:1;paint-order:markers stroke fill;stroke-miterlimit:4;stroke-dasharray:none" />
          <path
             style="opacity:0.999;fill:#000000;fill-opacity:1;fill-rule:evenodd;stroke:#000000;stroke-width:2.41984612;stroke-linecap:round;stroke-opacity:1;paint-order:markers stroke fill;stroke-miterlimit:4;stroke-dasharray:none"
             d="m 575.05302,1166.8125 -0.75597,7.1816"
             id="path1517" />
          <path
             id="path1519"
             d="m 572.93634,1166.8125 -0.75597,7.1816"
             style="opacity:0.999;fill:#000000;fill-opacity:1;fill-rule:evenodd;stroke:#000000;stroke-width:2.41984612;stroke-linecap:round;stroke-opacity:1;paint-order:markers stroke fill;stroke-miterlimit:4;stroke-dasharray:none" />
          <path
             style="opacity:0.999;fill:#000000;fill-opacity:1;fill-rule:evenodd;stroke:#000000;stroke-width:2.41984612;stroke-linecap:round;stroke-opacity:1;paint-order:markers stroke fill;stroke-miterlimit:4;stroke-dasharray:none"
             d="m 570.81966,1166.8125 -0.75597,7.1816"
             id="path1521" />
          <path
             id="path1523"
             d="m 569.23215,1166.8125 -0.75597,7.1816"
             style="opacity:0.999;fill:#000000;fill-opacity:1;fill-rule:evenodd;stroke:#000000;stroke-width:2.41984612;stroke-linecap:round;stroke-opacity:1;paint-order:markers stroke fill;stroke-miterlimit:4;stroke-dasharray:none" />
          <path
             style="opacity:0.999;fill:#000000;fill-opacity:1;fill-rule:evenodd;stroke:#000000;stroke-width:2.41984612;stroke-linecap:round;stroke-opacity:1;paint-order:markers stroke fill;stroke-miterlimit:4;stroke-dasharray:none"
             d="m 583.51974,1166.8125 -0.75597,7.1816"
             id="path1525" />
          <path
             id="path1527"
             d="m 591.45729,1166.8125 -0.75597,7.1816"
             style="opacity:0.999;fill:#000000;fill-opacity:1;fill-rule:evenodd;stroke:#000000;stroke-width:2.41984612;stroke-linecap:round;stroke-opacity:1;paint-order:markers stroke fill;stroke-miterlimit:4;stroke-dasharray:none" />
        </g>
        <g
           style="stroke-width:2.41984612;stroke-miterlimit:4;stroke-dasharray:none;stroke:#000000;stroke-opacity:1"
           transform="translate(1205.9201,171.0525)"
           id="g1663">
          <path
             style="opacity:0.999;fill:none;fill-rule:evenodd;stroke:#000000;stroke-width:2.41984612;stroke-linecap:round;stroke-opacity:1;paint-order:markers stroke fill;stroke-miterlimit:4;stroke-dasharray:none"
             d="m -95.147955,592.26927 c 0,0 153.947251,-38.48681 205.263005,84.45716"
             id="path1531" />
          <path
             style="opacity:0.999;fill:none;fill-rule:evenodd;stroke:#000000;stroke-width:2.41984612;stroke-linecap:round;stroke-opacity:1;paint-order:markers stroke fill;stroke-miterlimit:4;stroke-dasharray:none"
             d="m -119.73674,695.96984 c 0,0 100.493336,65.21376 209.539301,17.10526 2.138156,-1.06908 23.519719,-13.89804 20.312489,-36.34867"
             id="path1533" />
          <path
             style="opacity:0.999;fill:none;fill-rule:evenodd;stroke:#000000;stroke-width:2.41984612;stroke-linecap:round;stroke-opacity:1;paint-order:markers stroke fill;stroke-miterlimit:4;stroke-dasharray:none"
             d="m -91.940715,707.72969 c 0,0 -17.105245,45.97038 -59.868365,37.41775 0,0 -40.62497,-10.69078 -28.86512,-45.97036 0,0 2.13816,-74.83546 102.631495,-87.6644"
             id="path1535" />
          <path
             style="opacity:0.999;fill:none;fill-rule:evenodd;stroke:#000000;stroke-width:2.41984612;stroke-linecap:round;stroke-opacity:1;paint-order:markers stroke fill;stroke-miterlimit:4;stroke-dasharray:none"
             d="m 106.90781,697.03891 c 0,0 31.00327,9.62171 36.34866,-1.06907 0,0 -49.177597,-319.65435 172.12158,-320.72342"
             id="path1537" />
          <path
             style="opacity:0.999;fill:none;fill-rule:evenodd;stroke:#000000;stroke-width:2.41984612;stroke-linecap:round;stroke-opacity:1;paint-order:markers stroke fill;stroke-miterlimit:4;stroke-dasharray:none"
             d="m 143.25647,700.24617 c 0,0 14.96709,9.6217 39.55589,0 0,0 7.48355,-2.13817 21.38156,4.2763 0,0 16.03618,-13.89801 33.14143,4.27632"
             id="path1539" />
          <path
             style="opacity:0.999;fill:none;fill-rule:evenodd;stroke:#000000;stroke-width:2.41984612;stroke-linecap:round;stroke-opacity:1;paint-order:markers stroke fill;stroke-miterlimit:4;stroke-dasharray:none"
             d="m 236.26627,709.86787 c 0,0 18.17432,2.13815 26.72695,-2.13818 0,0 24.5888,2.13817 28.86511,-2.13814 l 8.51035,0.18948 c 0,0 9.07144,-62.74404 81.64286,-83.15476 0,0 -18.14286,-15.11905 -24.19048,-18.89882 L 306.4163,571.22151"
             id="path1541" />
          <path
             style="opacity:0.999;fill:none;fill-rule:evenodd;stroke:#000000;stroke-width:2.41984612;stroke-linecap:round;stroke-opacity:1;paint-order:markers stroke fill;stroke-miterlimit:4;stroke-dasharray:none"
             d="M 307.92821,571.97746 289.78535,546.27508"
             id="path1543" />
          <path
             style="opacity:0.999;fill:none;fill-rule:evenodd;stroke:#000000;stroke-width:2.41984612;stroke-linecap:round;stroke-opacity:1;paint-order:markers stroke fill;stroke-miterlimit:4;stroke-dasharray:none"
             d="m 290.5413,546.27508 c -35.52976,-40.06548 26.45833,-170.84524 26.45833,-170.84524 0,0 30.2381,-24.19048 39.30953,-20.41071"
             id="path1545" />
          <path
             style="opacity:0.999;fill:none;fill-rule:evenodd;stroke:#000000;stroke-width:2.41984612;stroke-linecap:round;stroke-opacity:1;paint-order:markers stroke fill;stroke-miterlimit:4;stroke-dasharray:none"
             d="m 380.49964,328.56079 c 0,0 -14.36309,11.33929 0,16.63096 0,0 18.14285,11.33928 30.99404,-8.31548 0,0 97.51786,-2.26786 151.94643,65.76786 0,0 35.27036,57.81923 33.75846,70.67042"
             id="path1547" />
          <path
             style="opacity:0.999;fill:none;fill-rule:evenodd;stroke:#000000;stroke-width:2.41984612;stroke-linecap:round;stroke-opacity:1;paint-order:markers stroke fill;stroke-miterlimit:4;stroke-dasharray:none"
             d="m 594.43415,470.67984 c 0,0 37.79761,31.75 19.65476,99.78571 0,0 12.09525,-9.07142 15.11906,8.31548 0,0 31.75,28.72619 4.53571,58.20833"
             id="path1549" />
          <path
             style="opacity:0.999;fill:none;fill-rule:evenodd;stroke:#000000;stroke-width:2.41984612;stroke-linecap:round;stroke-opacity:1;paint-order:markers stroke fill;stroke-miterlimit:4;stroke-dasharray:none"
             d="m 646.59488,612.04293 c 0,0 47.625,30.2381 -3.77979,80.8869 0,0 -46.86903,21.92263 -63.49998,-12.09523"
             id="path1551" />
          <path
             style="opacity:0.999;fill:none;fill-rule:evenodd;stroke:#000000;stroke-width:2.41984612;stroke-linecap:round;stroke-opacity:1;paint-order:markers stroke fill;stroke-miterlimit:4;stroke-dasharray:none"
             d="m 367.64843,626.40603 c 0,0 22.67858,-1.51191 27.97024,28.72619"
             id="path1553" />
          <path
             style="opacity:0.999;fill:none;fill-rule:evenodd;stroke:#000000;stroke-width:2.41984612;stroke-linecap:round;stroke-opacity:1;paint-order:markers stroke fill;stroke-miterlimit:4;stroke-dasharray:none"
             d="m 379.74367,654.37625 c 0,0 99.78573,25.7024 114.14882,19.65479 0,0 67.27977,-7.55953 74.83929,11.33928 0,0 35.52976,38.55357 -43.08929,65.0119 0,0 -111.125,36.28572 -224.51785,-49.1369"
             id="path1555" />
          <path
             style="opacity:0.999;fill:none;fill-rule:evenodd;stroke:#000000;stroke-width:2.41984612;stroke-linecap:round;stroke-opacity:1;paint-order:markers stroke fill;stroke-miterlimit:4;stroke-dasharray:none"
             d="m 448.53534,531.91198 c 0,0 24.94642,-25.70238 31.75,-21.92262"
             id="path1557" />
          <path
             style="opacity:0.999;fill:none;fill-rule:evenodd;stroke:#000000;stroke-width:2.41984612;stroke-linecap:round;stroke-opacity:1;paint-order:markers stroke fill;stroke-miterlimit:4;stroke-dasharray:none"
             d="m 574.7794,500.91793 c 0,0 29.48215,18.89881 24.19048,25.70238"
             id="path1559" />
          <path
             style="opacity:0.999;fill:none;fill-rule:evenodd;stroke:#000000;stroke-width:2.41984612;stroke-linecap:round;stroke-opacity:1;paint-order:markers stroke fill;stroke-miterlimit:4;stroke-dasharray:none"
             d="m 502.96392,587.85246 c 9.07143,-0.75595 -3.02382,-31.75 -3.02382,-31.75 -24.19046,-30.99405 -29.48213,0.75595 -29.48213,0.75595 0,0 -4.53571,24.19048 2.26786,31.75 0,0 21.92261,5.29167 30.23809,-0.75595 z"
             id="path1561" />
          <path
             id="path1563"
             d="m 589.14249,577.26913 c 9.07143,-0.75595 -3.02382,-31.75 -3.02382,-31.75 -24.19046,-30.99405 -29.48213,0.75595 -29.48213,0.75595 0,0 -4.53571,24.19048 2.26786,31.75 0,0 21.92261,5.29167 30.23809,-0.75595 z"
             style="opacity:0.999;fill:none;fill-rule:evenodd;stroke:#000000;stroke-width:2.41984612;stroke-linecap:round;stroke-opacity:1;paint-order:markers stroke fill;stroke-miterlimit:4;stroke-dasharray:none" />
          <path
             style="opacity:0.999;fill:none;fill-rule:evenodd;stroke:#000000;stroke-width:2.41984612;stroke-linecap:round;stroke-opacity:1;paint-order:markers stroke fill;stroke-miterlimit:4;stroke-dasharray:none"
             d="m 437.952,579.53698 c 0,0 21.92264,-6.04762 33.26191,8.31548"
             id="path1565" />
          <path
             style="opacity:0.999;fill:none;fill-rule:evenodd;stroke:#000000;stroke-width:2.41984612;stroke-linecap:round;stroke-opacity:1;paint-order:markers stroke fill;stroke-miterlimit:4;stroke-dasharray:none"
             d="m 527.1544,596.92389 c 0,0 33.2619,-24.94643 57.45236,9.07142"
             id="path1567" />
          <path
             style="opacity:0.999;fill:none;fill-rule:evenodd;stroke:#000000;stroke-width:2.41984612;stroke-linecap:round;stroke-opacity:1;paint-order:markers stroke fill;stroke-miterlimit:4;stroke-dasharray:none"
             d="M 602.74964,611.28698 C 592.1663,593.14412 564.952,621.87031 564.952,621.87031 c 6.80359,3.02382 3.02383,13.60715 22.67859,15.11905 3.77976,-8.31547 19.65477,5.29166 15.11905,-25.70238 z"
             id="path1569" />
          <path
             style="opacity:0.999;fill:none;fill-rule:evenodd;stroke:#000000;stroke-width:2.41984612;stroke-linecap:round;stroke-opacity:1;paint-order:markers stroke fill;stroke-miterlimit:4;stroke-dasharray:none"
             d="m 552.10082,514.52508 c 0,0 -36.28572,18.14285 -12.09524,77.10714"
             id="path1571" />
          <path
             style="opacity:0.999;fill:none;fill-rule:evenodd;stroke:#000000;stroke-width:2.41984612;stroke-linecap:round;stroke-opacity:1;paint-order:markers stroke fill;stroke-miterlimit:4;stroke-dasharray:none"
             d="m 567.97582,679.32271 c 0,0 29.48215,3.77975 31.75,-45.35716"
             id="path1573" />
          <path
             style="opacity:0.999;fill:none;fill-rule:evenodd;stroke:#000000;stroke-width:2.41984612;stroke-linecap:round;stroke-opacity:1;paint-order:markers stroke fill;stroke-miterlimit:4;stroke-dasharray:none"
             d="m 600.48176,647.57271 c 0,0 40.82145,-31.75001 45.35715,16.63094"
             id="path1575" />
          <path
             style="opacity:0.999;fill:none;fill-rule:evenodd;stroke:#000000;stroke-width:2.41984612;stroke-linecap:round;stroke-opacity:1;paint-order:markers stroke fill;stroke-miterlimit:4;stroke-dasharray:none"
             d="m 512.03534,360.31079 c 0,0 35.52976,-29.48214 71.81548,12.09524 0,0 15.87501,23.43453 -15.11904,21.16667 -1.51191,-1.51191 -28.72619,-3.77976 -24.19048,-24.19048 0,0 -1.5119,-12.09524 19.65476,1.51191"
             id="path1577" />
          <path
             style="opacity:0.999;fill:none;fill-rule:evenodd;stroke:#000000;stroke-width:2.41984612;stroke-linecap:round;stroke-opacity:1;paint-order:markers stroke fill;stroke-miterlimit:4;stroke-dasharray:none"
             d="m 614.7199,506.74302 c 0,0 17.10525,11.75986 20.3125,-9.6217 0,0 31.00327,8.55263 27.79603,84.45717 0,0 -7.48354,3.20724 6.41447,21.38156 0,0 8.55263,27.79603 3.20724,40.62497 0,0 50.24667,164.63803 -107.97689,145.39462 0,0 -28.86511,62.00653 -94.07888,50.24668"
             id="path1579" />
          <path
             style="opacity:0.999;fill:none;fill-rule:evenodd;stroke:#000000;stroke-width:2.41984612;stroke-linecap:round;stroke-opacity:1;paint-order:markers stroke fill;stroke-miterlimit:4;stroke-dasharray:none"
             d="m 471.46345,840.29539 c -68.421,18.17433 -63.07561,0 -71.62825,1.06907 l -11.75985,-13.898 -16.03616,13.898 c 0,0 -59.86838,59.86839 -134.70384,17.10526"
             id="path1581" />
          <path
             style="opacity:0.999;fill:none;fill-rule:evenodd;stroke:#000000;stroke-width:2.41984612;stroke-linecap:round;stroke-opacity:1;paint-order:markers stroke fill;stroke-miterlimit:4;stroke-dasharray:none"
             d="m 196.71038,849.91709 c 0,0 20.31248,-41.69404 34.2105,-8.55263 l 8.55262,18.17434"
             id="path1583" />
          <path
             style="opacity:0.999;fill:none;fill-rule:evenodd;stroke:#000000;stroke-width:2.41984612;stroke-linecap:round;stroke-opacity:1;paint-order:markers stroke fill;stroke-miterlimit:4;stroke-dasharray:none"
             d="m 196.71038,848.84802 c -19.24341,60.93745 -85.52626,11.75985 -85.52626,11.75985 l -44.901277,16.03618 c 0,0 -25.657875,19.2434 -33.141422,-29.93419 l -3.207234,-13.89801 c 0,0 -49.177593,12.82893 -49.177593,23.51971 0,0 -12.828939,-3.20723 -35.279579,27.79604 0,0 -49.177585,-25.65788 -69.490075,1.06907 0,0 -17.10525,-44.90128 -11.75986,-53.4539 0,0 -38.48681,-10.69078 -44.90128,9.6217 0,0 -18.17432,-16.03617 -20.31248,-5.34539 0,0 -17.10525,-43.8322 -5.34539,-72.69731 0,0 -13.89802,-69.49008 8.55262,-79.11178 0,0 -18.17432,-25.65788 5.3454,-59.86837 0,0 -26.72696,-71.62824 69.49007,-101.56243"
             id="path1585" />
          <path
             style="fill:#f7e83b;fill-opacity:1;stroke:#000000;stroke-width:9.14587521;stroke-miterlimit:4;stroke-dasharray:none;stroke-opacity:1"
             d="m 1667.5355,2852.6526 c -169.1705,-15.9097 -360.9545,-88.9381 -496.4663,-189.0465 -26.0796,-19.2661 -25.7404,-15.441 -5.6918,-64.1935 35.7983,-87.051 117.999,-170.8095 207.4272,-211.3582 25.0188,-11.3441 29.0767,-12.0887 43.0557,-7.9005 28.9118,8.6622 57.5033,42.1 67.3651,78.7836 2.3561,8.7644 3.6252,16.5939 2.8201,17.399 -0.8051,0.8051 -12.8239,-1.4799 -26.7084,-5.0777 -17.8257,-4.6191 -26.5068,-5.2794 -29.5394,-2.2468 -2.7091,2.7091 -2.8775,5.6821 -0.4562,8.0522 4.8545,4.7517 62.7975,19.3998 168.0188,42.4752 150.9041,33.0939 175.7559,36.612 245.9417,34.8161 226.407,-5.7932 266.8511,-0.4282 298.5575,39.6044 42.5064,53.6686 37.6693,110.6545 -13.3265,157.0009 -88.1423,80.1062 -268.1946,119.8241 -460.9975,101.6918 z"
             id="path1587"
             transform="scale(0.26458333)" />
          <path
             style="fill:#f7e83b;fill-opacity:1;stroke:#000000;stroke-width:9.14587521;stroke-miterlimit:4;stroke-dasharray:none;stroke-opacity:1"
             d="m -581.61191,2804.4038 c -52.37846,-18.5312 -89.68002,-55.0677 -98.57757,-96.5555 -8.81775,-41.1157 18.83156,-146.9616 52.81442,-202.1819 55.25756,-89.7905 164.20049,-157.7398 286.53895,-178.7185 l 27.55318,-4.7249 39.58175,38.3315 c 58.3086,56.4669 126.55244,107.9065 207.696742,156.5539 37.821809,22.6749 44.017034,24.5899 44.017034,13.6065 0,-4.6825 -9.638633,-12.8384 -27.274119,-23.0785 -39.43381,-22.8973 -111.682057,-71.9826 -144.451817,-98.1401 -48.05808,-38.3611 -94.95434,-86.0258 -94.95434,-96.5103 0,-7.1658 -2.25263,-9.3848 -9.52697,-9.3848 -6.98538,0 -15.75725,-7.8151 -32.88069,-29.2944 l -23.35372,-29.2945 25.80962,-4.7357 c 81.98179,-15.0426 210.74137,-18.3865 288.372842,-7.489 205.287438,28.8173 353.652908,130.2776 434.118998,296.874 9.06701,18.7723 16.48548,38.8979 16.48548,44.7235 0,35.1935 -29.06617,83.2949 -63.54542,105.161 -39.20265,24.8616 -136.65776,54.8144 -215.77525,66.3184 -82.820467,12.0425 -204.454834,7.1622 -293.96546,-11.7947 -74.14875,-15.7034 -178.26736,-51.7581 -178.26736,-61.7311 0,-4.2392 -2.66531,-5.3281 -8.99164,-3.6738 -6.27113,1.64 -22.87638,-4.9413 -54.88254,-21.7521 -25.24,-13.2568 -47.55874,-24.1034 -49.59721,-24.1034 -2.03847,0 -3.7063,3.5103 -3.7063,7.8006 0,5.8911 11.37061,13.5568 46.44912,31.3148 25.54702,12.9327 46.45718,25.505 46.46702,27.9384 0.0376,9.2766 -32.01905,53.0446 -53.87223,73.5536 -46.71244,43.8391 -109.44069,59.6822 -162.28252,40.987 z"
             id="path1589"
             transform="scale(0.26458333)" />
          <path
             style="fill:#f7e83b;fill-opacity:1;stroke:#000000;stroke-width:9.14587521;stroke-miterlimit:4;stroke-dasharray:none;stroke-opacity:1"
             d="m 1816.4902,2222.1177 c -26.3547,-4.1511 -27.9327,-5.2432 -32.6582,-22.6029 -7.2083,-26.48 -1.6167,-88.9178 10.2926,-114.931 15.6945,-34.2815 34.9426,-34.0656 68.9563,0.7733 17.1541,17.5703 22.0745,26.1549 29.6857,51.7934 5.0179,16.9028 10.1342,40.526 11.3696,52.4961 l 2.2462,21.7638 -16.7436,6.6994 c -15.5374,6.2169 -47.8751,7.9887 -73.1486,4.0079 z"
             id="path1591"
             transform="scale(0.26458333)" />
          <path
             style="fill:#f7e83b;fill-opacity:1;stroke:#000000;stroke-width:9.14587521;stroke-miterlimit:4;stroke-dasharray:none;stroke-opacity:1"
             d="m 2134.4828,2180.5006 c -8.4467,-1.6353 -17.5381,-5.1607 -20.203,-7.8341 -3.257,-3.2675 -4.8453,-21.6772 -4.8453,-56.1611 0,-46.7008 0.9056,-53.0908 10.1015,-71.2715 5.5558,-10.9842 13.0021,-21.7071 16.5472,-23.8285 11.5409,-6.9063 29.3884,1.5648 52.5166,24.9263 20.5834,20.791 23.5142,26.0282 31.6314,56.5237 4.9203,18.4853 9.2781,41.2072 9.6838,50.4931 0.6793,15.5461 -0.3825,17.4442 -13.4044,23.9628 -14.8665,7.4419 -52.5032,8.9053 -82.0278,3.1893 z"
             id="path1593"
             transform="scale(0.26458333)" />
          <path
             style="fill:#000000;fill-opacity:1;stroke:#000000;stroke-width:9.14587521;stroke-miterlimit:4;stroke-dasharray:none;stroke-opacity:1"
             d="m 2190.2467,2392.9963 c -12.4541,-5.6839 -24.0691,-17.2047 -34.9891,-34.7054 -6.0353,-9.6724 -5.6782,-10.4098 12.3668,-25.534 59.5898,-49.9446 105.4548,-46.6546 105.4548,7.5646 0,27.2557 -6.4743,41.6799 -19.8856,44.3038 -5.7305,1.1212 -15.8738,3.9893 -22.5408,6.3735 -20.6062,7.3692 -27.8515,7.7273 -40.4061,1.9975 z"
             id="path1595"
             transform="scale(0.26458333)" />
          <path
             style="fill:#b02b2b;fill-opacity:1;stroke:#000000;stroke-width:9.14587521;stroke-miterlimit:4;stroke-dasharray:none;stroke-opacity:1"
             d="m 889.69713,2661.357 c -29.31561,-26.2031 -71.82464,-32.7365 -104.16954,-16.0103 -11.54778,5.9715 -14.48969,5.9772 -35.55078,0.068 -29.39149,-8.2468 -59.12918,-8.1964 -81.52201,0.1382 -21.95786,8.1727 -84.60238,9.6249 -104.85676,2.4307 l -14.44516,-5.1309 -7.74935,-79.7221 c -10.52714,-108.2989 -10.64248,-305.6942 -0.23308,-398.9303 18.67273,-167.2499 51.85793,-291.6235 107.81105,-404.061 102.21212,-205.3946 269.04902,-317.2059 495.1213,-331.8218 l 41.6976,-2.6958 -19.8297,46.7916 c -51.9738,122.6412 -91.4323,250.1846 -109.6404,354.3961 -7.1552,40.9516 -7.1127,141.2324 0.072,169.7056 7.9467,31.4935 23.1193,59.8267 60.5858,113.1371 17.9613,25.5569 32.7231,48.2853 32.804,50.5076 0.081,2.2224 46.934,33.5054 104.1181,69.5178 57.184,36.0125 119.4262,77.7577 138.3161,92.7674 l 34.3452,27.2901 -20.2031,6.2657 c -32.9259,10.2115 -100.5604,48.0063 -134.494,75.1565 -64.2274,51.3883 -115.7717,127.8792 -136.5611,202.6549 l -6.8502,24.6386 -18.6311,2.4969 c -19.4361,2.6048 -111.01539,9.3518 -170.15404,12.5358 l -34.34519,1.8492 -15.6355,-13.9754 z"
             id="path1597"
             transform="scale(0.26458333)" />
          <path
             style="fill:#ffffff;stroke:#000000;stroke-width:9.14587521;stroke-miterlimit:4;stroke-dasharray:none;stroke-opacity:1"
             d="m -482.61113,3278.4546 c -19.69088,-61.5823 -29.18476,-111.3242 -23.90041,-125.2232 2.03034,-5.3401 3.69152,-11.2034 3.69152,-13.0294 0,-5.7443 -53.09728,-14.0672 -88.89342,-13.9337 -41.17046,0.1535 -60.56369,6.0281 -81.07658,24.5603 l -15.37054,13.8863 -16.94812,-11.2157 c -9.67129,-6.4002 -24.96468,-12.1381 -35.6191,-13.3639 l -18.67098,-2.1481 -11.51988,-44.4467 c -15.48957,-59.7629 -19.15271,-136.8123 -8.629,-181.4997 6.12946,-26.0278 6.48756,-34.6027 2.49745,-59.8029 -8.75833,-55.3145 -12.50797,-125.2218 -8.69359,-162.0809 5.13732,-49.6429 13.48859,-72.441 32.49595,-88.7106 l 15.63725,-13.3849 -10.05458,-20.3167 c -14.8691,-30.0449 -20.31078,-69.1537 -14.4101,-103.5638 4.53718,-26.4588 24.89276,-76.5967 37.995,-93.5856 5.2893,-6.8583 5.2607,-10.3695 -0.2468,-30.3046 -8.83949,-31.9955 -8.41964,-100.6778 0.80471,-131.6439 27.49482,-92.3 97.22875,-160.6961 210.3427,-206.3073 18.96749,-7.6483 35.92952,-13.906 37.6934,-13.906 1.76388,0 5.42923,14.0916 8.14522,31.3147 13.77901,87.3777 64.20191,195.1824 124.51011,266.204 l 17.60885,20.737 -39.30152,9.0465 c -178.95926,41.1933 -296.39615,150.7427 -322.68562,301.0127 -3.11035,17.7787 -6.64743,35.4788 -7.86018,39.3337 -1.21274,3.8549 -2.20499,18.8985 -2.20499,33.4304 0,49.3449 29.57376,91.8758 82.60091,118.7909 49.93215,25.3443 109.17346,25.8406 159.54257,1.3368 29.71346,-14.4552 68.26771,-50.7849 90.05088,-84.855 9.57354,-14.9735 17.78099,-27.8084 18.23875,-28.5218 0.45776,-0.7135 27.05726,7.7617 59.11001,18.8337 107.17383,37.0212 198.754539,52.9673 304.932845,53.0953 106.421345,0.1281 201.804115,-16.6485 288.676465,-50.7749 42.06259,-16.5236 69.69297,-34.7275 88.22434,-58.1252 11.4342,-14.4369 13.31635,-15.3282 25.41378,-12.0354 24.4899,6.666 72.52439,10.5734 92.04538,7.4876 15.16199,-2.3968 24.14228,-1.3062 40.5367,4.9232 31.179,11.8471 64.97095,13.6448 100.69625,5.3569 48.76656,-11.3134 70.37906,-11.8308 96.49061,-2.31 l 22.96712,8.3742 19.74783,-9.9976 c 10.86128,-5.4987 25.47758,-9.9976 32.48061,-9.9976 17.27292,0 55.65282,20.0036 60.64891,31.6102 3.96614,9.214 4.85964,9.346 48.48732,7.1664 128.3863,-6.4141 204.901,-13.5505 208.6019,-19.4562 1.4383,-2.2949 18.0098,6.3633 38.3858,20.0557 138.1685,92.8471 281.755,148.8342 444.7438,173.414 62.7664,9.4656 206.4584,9.5379 266.6669,0.1341 59.2479,-9.2537 99.1552,-19.6726 141.5414,-36.9533 137.5513,-56.0791 185.4057,-138.2478 132.0844,-226.7966 -7.5791,-12.5864 -13.7802,-23.3743 -13.7802,-23.9731 0,-0.5988 6.2448,-1.8177 13.8773,-2.7088 11.3916,-1.3299 14.6324,0.036 18.0928,7.6318 7.5529,16.5769 37.9545,46.1116 58.7814,57.1054 19.0277,10.044 23.8152,10.7501 72.8932,10.7501 43.5326,0 57.7175,-1.6048 82.8325,-9.3709 27.3928,-8.4705 32.8281,-12.0087 56.5685,-36.8247 90.0749,-94.1555 95.7897,-202.0947 14.7153,-277.9359 -22.319,-20.8782 -26.0911,-26.5255 -28.5151,-42.6898 -3.4377,-22.9241 -21.7932,-60.4467 -40.0322,-81.8344 -7.5113,-8.808 -17.4647,-24.6587 -22.1188,-35.2238 -8.8033,-19.9839 -23.3228,-29.7123 -38.4437,-25.7581 -6.0897,1.5925 -7.1303,0.265 -5.3558,-6.8326 8.0501,-32.1989 11.371,-76.175 9.6665,-128.0072 -1.0596,-32.2238 -3.1093,-61.3162 -4.5549,-64.6497 -2.134,-4.9211 1.0999,-6.0609 17.1952,-6.0609 22.6131,0 34.5177,-8.0515 43.5834,-29.4768 l 5.6336,-13.3142 11.4011,8.1183 c 25.602,18.2302 51.0999,64.7416 64.7478,118.1085 13.2557,51.8326 21.7305,173.489 12.4837,179.2038 -2.2223,1.3735 -4.0406,10.2324 -4.0406,19.6865 0,12.9665 4.0735,23.9431 16.5818,44.6822 21.5194,35.6797 33.7399,90.5079 30.2325,135.6415 -1.2953,16.6675 -2.519,33.032 -2.7195,36.3655 -0.2004,3.3335 4.2525,27.6289 9.8953,53.9898 26.6193,124.3544 20.3904,244.6553 -16.9294,326.9623 -40.0461,88.3198 -108.3829,138.1734 -217.6275,158.7656 -27.8707,5.2535 -51.5972,6.3191 -109.2165,4.9054 l -73.6106,-1.8062 -15.2828,26.3261 c -18.8376,32.4495 -75.569,92.9213 -107.5454,114.6361 -57.603,39.1175 -111.8418,53.9156 -185.2227,50.5347 -26.2811,-1.2109 -47.7838,-0.8553 -47.7838,0.7902 0,3.0028 -56.3189,16.2734 -104.6568,24.6607 -14.2257,2.4683 -42.13,4.4879 -62.0095,4.4879 -33.3261,0 -38.3987,-1.1225 -65.0489,-14.3944 -22.9044,-11.4066 -33.4038,-19.9093 -50.5819,-40.9627 -21.5527,-26.4152 -21.7274,-26.525 -30.3045,-19.0539 -4.7448,4.1329 -22.264,19.4506 -38.9315,34.0393 -64.5523,56.5013 -108.7968,85.1619 -168.1661,108.9345 -99.4597,39.8257 -213.7091,36.4861 -313.26979,-9.1569 l -26.86727,-12.3171 -22.19365,-47.2748 c -33.9962,-72.4154 -56.42805,-86.8365 -96.0188,-61.7288 -20.38435,12.9274 -54.73423,60.1175 -66.15218,90.8804 -13.75763,37.0665 -50.85306,74.6982 -82.22125,83.4099 -50.65721,14.0688 -121.23479,-2.9471 -193.05393,-46.5442 -16.23727,-9.8567 -31.03306,-17.9212 -32.87953,-17.9212 -5.65464,0 -168.87359,59.3255 -182.25027,66.2429 -23.65979,12.235 -51.57673,6.7408 -68.74626,-13.5296 -12.31137,-14.5347 -25.27817,-49.7693 -35.01281,-95.1397 -13.16718,-61.3688 -13.58486,-62.6295 -20.74987,-62.6295 -11.98675,0 -109.5676092,33.6777 -141.548513,48.8521 -18.093004,8.5848 -37.280367,20.8188 -42.63858,27.1867 -5.358212,6.3679 -15.101578,12.9031 -21.651852,14.5227 -21.111175,5.2197 -49.578565,26.6613 -84.134635,63.37 l -33.75409,35.8568 -24.96244,-10.1431 c -59.99078,-24.3764 -137.47699,-33.0966 -180.10194,-20.2684 -10.66096,3.2085 -26.33009,11.416 -34.8203,18.2389 l -15.43675,12.4053 z"
             id="path1599"
             transform="scale(0.26458333)" />
          <path
             style="fill:#f7e83b;fill-opacity:1;stroke:#000000;stroke-width:9.14587521;stroke-miterlimit:4;stroke-dasharray:none;stroke-opacity:1"
             d="m 2120.1312,1469.5779 c -41.8793,-15.9031 -60.0038,-38.2646 -55.0034,-67.8616 3.2858,-19.4487 12.2073,-20.097 44.2934,-3.2187 12.667,6.6631 24.6704,11.1015 26.6743,9.863 8.9502,-5.5315 1.7925,-14.1909 -21.2455,-25.7032 -26.9277,-13.4559 -47.8766,-15.8659 -57.166,-6.5764 -7.0766,7.0765 -12.3129,38.2288 -8.2191,48.8973 2.0479,5.3366 -2.693,3.054 -15.5662,-7.4946 -10.181,-8.3425 -33.2276,-24.0133 -51.2147,-34.8239 -36.0932,-21.6926 -36.1447,-22.2825 -3.1785,-36.4134 65.9362,-28.2635 135.0258,-13.5398 195.2005,41.5994 37.0901,33.9864 48.1606,64.6472 29.4541,81.5764 -13.3215,12.0558 -52.5001,12.1284 -84.0289,0.1557 z"
             id="path1601"
             transform="scale(0.26458333)" />
          <path
             style="fill:#f7e83b;fill-opacity:1;stroke:#000000;stroke-width:9.14587521;stroke-miterlimit:4;stroke-dasharray:none;stroke-opacity:1"
             d="m 2260.9573,2624.672 c -13.334,-5.9263 -33.2881,-20.5732 -44.3425,-32.5487 l -20.0989,-21.7736 17.3218,-13.6019 c 21.3053,-16.73 51.0892,-65.4221 51.13,-83.5898 0.032,-13.9997 72.8369,-55.2711 97.5018,-55.2711 25.1609,0 53.828,31.0344 63.2571,68.4808 5.0653,20.1163 13.2587,36.5751 18.2074,36.5751 13.7672,0 1.1843,-64.8177 -17.5969,-90.6461 -15.9082,-21.8772 -15.9074,-22.0504 0.2111,-48.4873 8.8969,-14.5924 16.1898,-33.5295 16.2064,-42.0825 0.028,-14.5312 1.325,-14.3344 19.778,3.0013 65.0982,61.1566 57.6688,159.2781 -18.2529,241.0701 -23.1534,24.9437 -39.3074,34.1064 -72.6033,41.1816 -54.7525,11.6347 -80.5594,11.0967 -110.7191,-2.3079 z"
             id="path1603"
             transform="scale(0.26458333)" />
          <path
             style="opacity:0.999;fill:#000000;fill-opacity:1;fill-rule:evenodd;stroke:#000000;stroke-width:2.41984612;stroke-linecap:round;stroke-opacity:1;paint-order:markers stroke fill;stroke-miterlimit:4;stroke-dasharray:none"
             d="m 476.24999,588.8869 1.51191,7.55952"
             id="path1605" />
          <path
             style="opacity:0.999;fill:#000000;fill-opacity:1;fill-rule:evenodd;stroke:#000000;stroke-width:2.41984612;stroke-linecap:round;stroke-opacity:1;paint-order:markers stroke fill;stroke-miterlimit:4;stroke-dasharray:none"
             d="m 479.65177,589.26488 0.75597,7.18154"
             id="path1607" />
          <path
             style="opacity:0.999;fill:#000000;fill-opacity:1;fill-rule:evenodd;stroke:#000000;stroke-width:2.41984612;stroke-linecap:round;stroke-opacity:1;paint-order:markers stroke fill;stroke-miterlimit:4;stroke-dasharray:none"
             d="m 484.18749,589.64284 0.37799,6.42559"
             id="path1609" />
          <path
             style="opacity:0.999;fill:#000000;fill-opacity:1;fill-rule:evenodd;stroke:#000000;stroke-width:2.41984612;stroke-linecap:round;stroke-opacity:1;paint-order:markers stroke fill;stroke-miterlimit:4;stroke-dasharray:none"
             d="m 488.72322,590.77677 0.37796,5.29166"
             id="path1611" />
          <path
             id="path1613"
             d="m 486.00181,589.26488 0.75597,7.18154"
             style="opacity:0.999;fill:#000000;fill-opacity:1;fill-rule:evenodd;stroke:#000000;stroke-width:2.41984612;stroke-linecap:round;stroke-opacity:1;paint-order:markers stroke fill;stroke-miterlimit:4;stroke-dasharray:none" />
          <path
             style="opacity:0.999;fill:#000000;fill-opacity:1;fill-rule:evenodd;stroke:#000000;stroke-width:2.41984612;stroke-linecap:round;stroke-opacity:1;paint-order:markers stroke fill;stroke-miterlimit:4;stroke-dasharray:none"
             d="m 491.82268,589.26488 0.75597,7.18154"
             id="path1615" />
          <path
             id="path1617"
             d="m 494.46853,589.26488 0.75597,7.18154"
             style="opacity:0.999;fill:#000000;fill-opacity:1;fill-rule:evenodd;stroke:#000000;stroke-width:2.41984612;stroke-linecap:round;stroke-opacity:1;paint-order:markers stroke fill;stroke-miterlimit:4;stroke-dasharray:none" />
          <path
             style="opacity:0.999;fill:#000000;fill-opacity:1;fill-rule:evenodd;stroke:#000000;stroke-width:2.41984612;stroke-linecap:round;stroke-opacity:1;paint-order:markers stroke fill;stroke-miterlimit:4;stroke-dasharray:none"
             d="m 496.58521,589.26488 0.75597,7.18154"
             id="path1619" />
          <path
             id="path1621"
             d="m 499.23106,589.26488 0.75597,7.18154"
             style="opacity:0.999;fill:#000000;fill-opacity:1;fill-rule:evenodd;stroke:#000000;stroke-width:2.41984612;stroke-linecap:round;stroke-opacity:1;paint-order:markers stroke fill;stroke-miterlimit:4;stroke-dasharray:none" />
          <path
             style="opacity:0.999;fill:#000000;fill-opacity:1;fill-rule:evenodd;stroke:#000000;stroke-width:2.41984612;stroke-linecap:round;stroke-opacity:1;paint-order:markers stroke fill;stroke-miterlimit:4;stroke-dasharray:none"
             d="m 501.34774,589.26488 0.75597,7.18154"
             id="path1623" />
          <path
             id="path1625"
             d="m 503.46442,589.26488 0.75597,7.18154"
             style="opacity:0.999;fill:#000000;fill-opacity:1;fill-rule:evenodd;stroke:#000000;stroke-width:2.41984612;stroke-linecap:round;stroke-opacity:1;paint-order:markers stroke fill;stroke-miterlimit:4;stroke-dasharray:none" />
          <path
             style="opacity:0.999;fill:#000000;fill-opacity:1;fill-rule:evenodd;stroke:#000000;stroke-width:2.41984612;stroke-linecap:round;stroke-opacity:1;paint-order:markers stroke fill;stroke-miterlimit:4;stroke-dasharray:none"
             d="m 505.05193,589.26488 0.75597,7.18154"
             id="path1627" />
          <path
             id="path1629"
             d="m 490.76434,589.26488 0.75597,7.18154"
             style="opacity:0.999;fill:#000000;fill-opacity:1;fill-rule:evenodd;stroke:#000000;stroke-width:2.41984612;stroke-linecap:round;stroke-opacity:1;paint-order:markers stroke fill;stroke-miterlimit:4;stroke-dasharray:none" />
          <path
             style="opacity:0.999;fill:#000000;fill-opacity:1;fill-rule:evenodd;stroke:#000000;stroke-width:2.41984612;stroke-linecap:round;stroke-opacity:1;paint-order:markers stroke fill;stroke-miterlimit:4;stroke-dasharray:none"
             d="m 482.82679,589.26488 0.75597,7.18154"
             id="path1631" />
          <g
             style="stroke-width:2.41984612;stroke-miterlimit:4;stroke-dasharray:none;stroke:#000000;stroke-opacity:1"
             id="g1661"
             transform="rotate(-3.3182477,-9560.6899,987.21208)">
            <path
               id="path1633"
               d="m 598.03409,1166.4346 -1.51191,7.5595"
               style="opacity:0.999;fill:#000000;fill-opacity:1;fill-rule:evenodd;stroke:#000000;stroke-width:2.41984612;stroke-linecap:round;stroke-opacity:1;paint-order:markers stroke fill;stroke-miterlimit:4;stroke-dasharray:none" />
            <path
               id="path1635"
               d="m 594.63231,1166.8125 -0.75597,7.1816"
               style="opacity:0.999;fill:#000000;fill-opacity:1;fill-rule:evenodd;stroke:#000000;stroke-width:2.41984612;stroke-linecap:round;stroke-opacity:1;paint-order:markers stroke fill;stroke-miterlimit:4;stroke-dasharray:none" />
            <path
               id="path1637"
               d="m 590.09659,1167.1905 -0.37799,6.4256"
               style="opacity:0.999;fill:#000000;fill-opacity:1;fill-rule:evenodd;stroke:#000000;stroke-width:2.41984612;stroke-linecap:round;stroke-opacity:1;paint-order:markers stroke fill;stroke-miterlimit:4;stroke-dasharray:none" />
            <path
               id="path1639"
               d="m 585.56086,1168.3244 -0.37796,5.2917"
               style="opacity:0.999;fill:#000000;fill-opacity:1;fill-rule:evenodd;stroke:#000000;stroke-width:2.41984612;stroke-linecap:round;stroke-opacity:1;paint-order:markers stroke fill;stroke-miterlimit:4;stroke-dasharray:none" />
            <path
               style="opacity:0.999;fill:#000000;fill-opacity:1;fill-rule:evenodd;stroke:#000000;stroke-width:2.41984612;stroke-linecap:round;stroke-opacity:1;paint-order:markers stroke fill;stroke-miterlimit:4;stroke-dasharray:none"
               d="m 588.28227,1166.8125 -0.75597,7.1816"
               id="path1641" />
            <path
               id="path1643"
               d="m 582.4614,1166.8125 -0.75597,7.1816"
               style="opacity:0.999;fill:#000000;fill-opacity:1;fill-rule:evenodd;stroke:#000000;stroke-width:2.41984612;stroke-linecap:round;stroke-opacity:1;paint-order:markers stroke fill;stroke-miterlimit:4;stroke-dasharray:none" />
            <path
               style="opacity:0.999;fill:#000000;fill-opacity:1;fill-rule:evenodd;stroke:#000000;stroke-width:2.41984612;stroke-linecap:round;stroke-opacity:1;paint-order:markers stroke fill;stroke-miterlimit:4;stroke-dasharray:none"
               d="m 579.81555,1166.8125 -0.75597,7.1816"
               id="path1645" />
            <path
               id="path1647"
               d="m 577.69887,1166.8125 -0.75597,7.1816"
               style="opacity:0.999;fill:#000000;fill-opacity:1;fill-rule:evenodd;stroke:#000000;stroke-width:2.41984612;stroke-linecap:round;stroke-opacity:1;paint-order:markers stroke fill;stroke-miterlimit:4;stroke-dasharray:none" />
            <path
               style="opacity:0.999;fill:#000000;fill-opacity:1;fill-rule:evenodd;stroke:#000000;stroke-width:2.41984612;stroke-linecap:round;stroke-opacity:1;paint-order:markers stroke fill;stroke-miterlimit:4;stroke-dasharray:none"
               d="m 575.05302,1166.8125 -0.75597,7.1816"
               id="path1649" />
            <path
               id="path1651"
               d="m 572.93634,1166.8125 -0.75597,7.1816"
               style="opacity:0.999;fill:#000000;fill-opacity:1;fill-rule:evenodd;stroke:#000000;stroke-width:2.41984612;stroke-linecap:round;stroke-opacity:1;paint-order:markers stroke fill;stroke-miterlimit:4;stroke-dasharray:none" />
            <path
               style="opacity:0.999;fill:#000000;fill-opacity:1;fill-rule:evenodd;stroke:#000000;stroke-width:2.41984612;stroke-linecap:round;stroke-opacity:1;paint-order:markers stroke fill;stroke-miterlimit:4;stroke-dasharray:none"
               d="m 570.81966,1166.8125 -0.75597,7.1816"
               id="path1653" />
            <path
               id="path1655"
               d="m 569.23215,1166.8125 -0.75597,7.1816"
               style="opacity:0.999;fill:#000000;fill-opacity:1;fill-rule:evenodd;stroke:#000000;stroke-width:2.41984612;stroke-linecap:round;stroke-opacity:1;paint-order:markers stroke fill;stroke-miterlimit:4;stroke-dasharray:none" />
            <path
               style="opacity:0.999;fill:#000000;fill-opacity:1;fill-rule:evenodd;stroke:#000000;stroke-width:2.41984612;stroke-linecap:round;stroke-opacity:1;paint-order:markers stroke fill;stroke-miterlimit:4;stroke-dasharray:none"
               d="m 583.51974,1166.8125 -0.75597,7.1816"
               id="path1657" />
            <path
               id="path1659"
               d="m 591.45729,1166.8125 -0.75597,7.1816"
               style="opacity:0.999;fill:#000000;fill-opacity:1;fill-rule:evenodd;stroke:#000000;stroke-width:2.41984612;stroke-linecap:round;stroke-opacity:1;paint-order:markers stroke fill;stroke-miterlimit:4;stroke-dasharray:none" />
          </g>
        </g>
      </g>
      <path
         style="fill:#1e1e46;stroke:#000000;stroke-width:17.03055097;fill-opacity:1;stroke-miterlimit:4;stroke-dasharray:none;stroke-opacity:1"
         d="m 1064.5893,4121.2837 c -22.5375,-37.2647 -64.65478,-213.4962 -64.65478,-270.5346 0,-75.4708 -21.80834,-86.6054 -170.39888,-87.0003 -62.35188,-0.1591 -103.52465,10.0225 -131.25793,32.4795 -37.9259,30.7105 -44.57794,30.9821 -108.2699,4.4194 -81.10702,-33.8255 -107.7169,-104.7287 -106.82039,-284.6276 0.31494,-63.1977 -0.30669,-170.5895 -1.3814,-238.6486 -6.2478,-395.658 -5.12332,-410.0961 36.30278,-466.1206 32.3468,-43.7457 36.42396,-62.1695 22.09709,-99.852 -27.91593,-73.4245 -19.77173,-205.279 17.7918,-288.0492 27.10854,-59.7329 32.28405,-98.207 23.94422,-177.9982 -23.21534,-222.1124 83.91663,-402.5733 309.30132,-521.0096 67.48514,-35.4624 130.91667,-64.4771 140.95897,-64.4771 10.0423,0 27.0361,42.2805 37.764,93.9566 23.9649,115.438 105.4248,290.8515 186.1135,400.7715 l 60.4577,82.3599 -89.4163,22.9167 c -151.5652,38.845 -324.53912,136.41 -409.62653,231.0477 -98.8318,109.9247 -147.80262,213.7792 -174.66255,370.4143 -18.44052,107.5368 -17.37818,131.2758 8.28278,185.0874 63.89947,133.9986 257.56158,201.9848 409.7752,143.8539 71.365,-27.2546 174.9891,-120.1527 216.2325,-193.8504 15.1216,-27.0209 21.92,-27.1962 81.9517,-2.1133 115.5688,48.2877 352.0486,97.0959 524.7438,108.3044 281.3089,18.2578 622.8532,-59.5493 749.4952,-170.7423 l 57.1681,-50.1944 172.7045,16.3395 c 94.9874,8.9867 282.548,12.6812 416.8013,8.21 224.6151,-7.4806 247.6984,-5.2967 289.2196,27.3638 42.447,33.389 57.5309,34.4884 254.4126,18.5441 115.1097,-9.322 216.9629,-19.415 226.3406,-22.4288 9.3776,-3.0139 66.337,24.5734 126.5764,61.3049 60.2393,36.7316 175.5861,97.6982 256.3262,135.4815 441.6083,206.6556 1008.9098,229.7315 1354.833,55.1102 201.801,-101.8688 266.8589,-238.8426 186.8913,-393.4829 -30.9999,-59.9474 -5.0231,-66.1054 40.1034,-9.5068 63.8005,80.02 113.4708,101.0835 235.0262,99.6668 63.465,-0.7396 140.6176,-10.6834 171.4503,-22.0971 61.1779,-22.647 155.351,-129.1555 193.6875,-219.0582 50.6703,-118.8265 20.2759,-273.322 -70.179,-356.7207 -25.2776,-23.3058 -55.1297,-71.0355 -66.3379,-106.066 -11.2084,-35.0305 -37.8783,-87.5566 -59.2669,-116.7248 -21.3885,-29.1681 -44.309,-67.7094 -50.9343,-85.6472 -6.6254,-17.9378 -28.5572,-36.932 -48.7375,-42.2092 -27.2148,-7.1169 -34.1027,-19.239 -26.6685,-46.9353 5.5124,-20.5371 10.1312,-102.9686 10.264,-183.1811 0.2192,-132.5543 3.3709,-145.8407 34.5943,-145.8407 18.8941,0 47.176,-17.8987 62.8489,-39.7748 l 28.4959,-39.7747 41.6671,51.3794 c 67.1435,82.7941 104.1973,229.2572 107.7534,425.9176 2.3345,129.115 11.5359,192.7293 34.1274,235.9447 37.4802,71.6956 68.6295,368.2684 69.9104,665.6165 1.0571,245.3563 -26.0966,341.3805 -128.6266,454.869 -63.6808,70.4871 -180.9863,139.4569 -277.046,162.8895 -29.1682,7.1153 -126.4466,12.5395 -216.1744,12.0541 l -163.1416,-0.8822 -51.7223,74.4437 c -131.4763,189.2333 -258.8817,262.1549 -487.1348,278.8159 -88.0906,6.4301 -172.0972,16.6821 -186.6813,22.7825 -14.584,6.1002 -80.1136,18.5228 -145.6212,27.606 -150.8313,20.9137 -224.6531,1.2798 -301.5202,-80.1958 l -59.1235,-62.6679 -104.8404,90.4213 c -210.7997,181.8079 -466.384,270.0184 -672.1494,231.9805 -183.9561,-34.006 -246.9677,-66.6613 -283.0563,-146.6916 -46.9151,-104.0395 -92.4517,-155.025 -138.4566,-155.025 -51.2532,0 -125.7006,73.8675 -178.027,176.6405 -65.5524,128.7495 -119.1399,168.074 -229.0351,168.074 -70.915,0 -124.7589,-15.0122 -221.2254,-61.6797 l -127.4981,-61.6797 -161.84,59.2469 c -223.8746,81.9567 -266.7887,86.9022 -301.0006,34.688 -15.0522,-22.9724 -40.4953,-93.3669 -56.5401,-156.432 -16.0449,-63.0652 -32.3809,-120.0469 -36.3023,-126.626 -10.4214,-17.4848 -261.5982,70.4022 -329.0389,115.131 -31.722,21.0389 -80.1115,49.8397 -107.5323,64.0016 -27.4208,14.1621 -77.2818,56.1065 -110.8023,93.2096 l -60.9463,67.4603 -101.2824,-29.4436 c -130.2189,-37.8557 -272.258,-38.1136 -329.5136,-0.5975 -24.213,15.865 -47.5784,22.9675 -51.9232,15.7835 z"
         id="path2365"
         transform="scale(0.26458334)" />
      <path
         style="opacity:0.999;fill:#ffffff;fill-opacity:1;fill-rule:evenodd;stroke:#000000;stroke-width:4.50600006;stroke-linecap:round;stroke-opacity:1;paint-order:markers stroke fill;stroke-miterlimit:4;stroke-dasharray:none"
         id="path2371"
         d="m 554.3525,926.55926 c 0,1.29225 15.65421,20.07575 14.89465,21.12119 -0.75956,1.04545 -23.46115,-8.03817 -24.69014,-7.63885 -1.229,0.39932 -14.25575,21.09179 -15.48475,20.69247 -1.22899,-0.39933 0.39487,-24.79682 -0.36469,-25.84226 -0.75956,-1.04545 -24.46475,-7.0403 -24.46475,-8.33254 0,-1.29225 23.70519,-7.2871 24.46475,-8.33255 0.75956,-1.04544 -0.8643,-25.44293 0.36469,-25.84226 1.229,-0.39932 14.25575,20.29315 15.48475,20.69247 1.22899,0.39933 23.93058,-8.6843 24.69014,-7.63885 0.75956,1.04544 -14.89465,19.82894 -14.89465,21.12118 z" />
      <path
         d="m 795.22921,898.49597 c 0,1.29224 15.65421,20.07575 14.89465,21.12119 -0.75956,1.04545 -23.46115,-8.03818 -24.69014,-7.63885 -1.229,0.39932 -14.25575,21.09179 -15.48475,20.69246 -1.22899,-0.39932 0.39487,-24.79681 -0.36469,-25.84226 -0.75956,-1.04544 -24.46475,-7.0403 -24.46475,-8.33254 0,-1.29224 23.70519,-7.28709 24.46475,-8.33254 0.75956,-1.04544 -0.8643,-25.44294 0.36469,-25.84226 1.229,-0.39933 14.25575,20.29314 15.48475,20.69247 1.22899,0.39932 23.93058,-8.6843 24.69014,-7.63886 0.75956,1.04545 -14.89465,19.82895 -14.89465,21.12119 z"
         id="path2373"
         style="opacity:0.999;fill:#ff8080;fill-opacity:1;fill-rule:evenodd;stroke:#000000;stroke-width:4.50600006;stroke-linecap:round;stroke-opacity:1;paint-order:markers stroke fill;stroke-miterlimit:4;stroke-dasharray:none" />
      <path
         style="opacity:0.999;fill:#ffffff;fill-opacity:1;fill-rule:evenodd;stroke:#000000;stroke-width:4.50600006;stroke-linecap:round;stroke-opacity:1;paint-order:markers stroke fill;stroke-miterlimit:4;stroke-dasharray:none"
         id="path2375"
         d="m 1001.0268,903.17322 c 0,1.29224 15.6542,20.07574 14.8946,21.12119 -0.7596,1.04544 -23.46114,-8.03818 -24.69014,-7.63886 -1.22899,0.39933 -14.25575,21.09179 -15.48474,20.69247 -1.22899,-0.39932 0.39487,-24.79682 -0.36469,-25.84226 -0.75956,-1.04545 -24.46476,-7.0403 -24.46476,-8.33254 0,-1.29224 23.7052,-7.2871 24.46476,-8.33254 0.75956,-1.04545 -0.86431,-25.44294 0.36469,-25.84226 1.22899,-0.39933 14.25575,20.29314 15.48474,20.69246 1.229,0.39933 23.93054,-8.6843 24.69014,-7.63885 0.7596,1.04544 -14.8946,19.82895 -14.8946,21.12119 z" />
      <path
         d="m 1164.7294,952.284 c 0,1.29224 15.6542,20.07574 14.8946,21.12119 -0.7595,1.04544 -23.4611,-8.03818 -24.6901,-7.63886 -1.229,0.39933 -14.2557,21.09179 -15.4847,20.69247 -1.229,-0.39933 0.3948,-24.79682 -0.3647,-25.84226 -0.7596,-1.04545 -24.4648,-7.0403 -24.4648,-8.33254 0,-1.29224 23.7052,-7.2871 24.4648,-8.33254 0.7595,-1.04545 -0.8643,-25.44294 0.3647,-25.84227 1.229,-0.39932 14.2557,20.29315 15.4847,20.69247 1.229,0.39933 23.9306,-8.6843 24.6901,-7.63885 0.7596,1.04544 -14.8946,19.82894 -14.8946,21.12119 z"
         id="path2377"
         style="opacity:0.999;fill:#c83737;fill-opacity:1;fill-rule:evenodd;stroke:#000000;stroke-width:4.50600006;stroke-linecap:round;stroke-opacity:1;paint-order:markers stroke fill;stroke-miterlimit:4;stroke-dasharray:none" />
      <path
         style="opacity:0.999;fill:#bec8b7;fill-opacity:1;fill-rule:evenodd;stroke:#000000;stroke-width:4.50600006;stroke-linecap:round;stroke-opacity:1;paint-order:markers stroke fill;stroke-miterlimit:4;stroke-dasharray:none"
         id="path2379"
         d="m 1405.6061,924.2207 c 0,1.29224 15.6542,20.07575 14.8947,21.12119 -0.7596,1.04545 -23.4612,-8.03818 -24.6902,-7.63885 -1.229,0.39932 -14.2557,21.09179 -15.4847,20.69247 -1.229,-0.39933 0.3948,-24.79682 -0.3647,-25.84227 -0.7596,-1.04544 -24.4648,-7.04029 -24.4648,-8.33254 0,-1.29224 23.7052,-7.28709 24.4648,-8.33254 0.7595,-1.04544 -0.8643,-25.44293 0.3647,-25.84226 1.229,-0.39932 14.2557,20.29314 15.4847,20.69247 1.229,0.39932 23.9306,-8.6843 24.6902,-7.63886 0.7595,1.04545 -14.8947,19.82895 -14.8947,21.12119 z" />
      <path
         d="m 1665.1917,851.72382 c 0,1.29224 15.6542,20.07574 14.8946,21.12118 -0.7595,1.04545 -23.4611,-8.03817 -24.6901,-7.63885 -1.229,0.39933 -14.2558,21.09179 -15.4848,20.69247 -1.229,-0.39933 0.3949,-24.79682 -0.3647,-25.84226 -0.7595,-1.04545 -24.4647,-7.0403 -24.4647,-8.33254 0,-1.29225 23.7052,-7.2871 24.4647,-8.33255 0.7596,-1.04544 -0.8643,-25.44293 0.3647,-25.84226 1.229,-0.39932 14.2558,20.29315 15.4848,20.69247 1.229,0.39933 23.9306,-8.6843 24.6901,-7.63885 0.7596,1.04544 -14.8946,19.82894 -14.8946,21.12119 z"
         id="path2381"
         style="opacity:0.999;fill:#9dac93;fill-opacity:1;fill-rule:evenodd;stroke:#000000;stroke-width:4.50600006;stroke-linecap:round;stroke-opacity:1;paint-order:markers stroke fill;stroke-miterlimit:4;stroke-dasharray:none" />
      <path
         style="opacity:0.999;fill:#9dac93;fill-opacity:1;fill-rule:evenodd;stroke:#000000;stroke-width:4.50600006;stroke-linecap:round;stroke-opacity:1;paint-order:markers stroke fill;stroke-miterlimit:4;stroke-dasharray:none"
         id="path2383"
         d="m 722.7325,1013.0878 c 0,1.2923 15.65422,20.0758 14.89466,21.1212 -0.75956,1.0455 -23.46115,-8.0382 -24.69015,-7.6388 -1.22899,0.3993 -14.25575,21.0918 -15.48474,20.6924 -1.229,-0.3993 0.39487,-24.7968 -0.36469,-25.8422 -0.75956,-1.0455 -24.46476,-7.0403 -24.46476,-8.3326 0,-1.2922 23.7052,-7.2871 24.46476,-8.3325 0.75956,-1.0455 -0.86431,-25.44295 0.36469,-25.84227 1.22899,-0.39933 14.25575,20.29314 15.48474,20.69246 1.229,0.39931 23.93059,-8.6843 24.69015,-7.63885 0.75956,1.04545 -14.89466,19.82896 -14.89466,21.12116 z" />
      <path
         d="m 722.7325,1013.0878 c 0,1.2923 15.65422,20.0758 14.89466,21.1212 -0.75956,1.0455 -23.46115,-8.0382 -24.69015,-7.6388 -1.22899,0.3993 -14.25575,21.0918 -15.48474,20.6924 -1.229,-0.3993 0.39487,-24.7968 -0.36469,-25.8422 -0.75956,-1.0455 -24.46476,-7.0403 -24.46476,-8.3326 0,-1.2922 23.7052,-7.2871 24.46476,-8.3325 0.75956,-1.0455 -0.86431,-25.44295 0.36469,-25.84227 1.22899,-0.39933 14.25575,20.29314 15.48474,20.69246 1.229,0.39931 23.93059,-8.6843 24.69015,-7.63885 0.75956,1.04545 -14.89466,19.82896 -14.89466,21.12116 z"
         id="path2385"
         style="opacity:0.999;fill:#9dac93;fill-opacity:1;fill-rule:evenodd;stroke:#000000;stroke-width:4.50600006;stroke-linecap:round;stroke-opacity:1;paint-order:markers stroke fill;stroke-miterlimit:4;stroke-dasharray:none" />
      <path
         style="opacity:0.999;fill:#ff8080;fill-opacity:1;fill-rule:evenodd;stroke:#000000;stroke-width:4.50600006;stroke-linecap:round;stroke-opacity:1;paint-order:markers stroke fill;stroke-miterlimit:4;stroke-dasharray:none"
         id="path2387"
         d="m 287.75118,896.15735 c 0,1.29224 15.65422,20.07574 14.89466,21.12119 -0.75956,1.04544 -23.46116,-8.03818 -24.69015,-7.63886 -1.229,0.39933 -14.25575,21.0918 -15.48474,20.69247 -1.229,-0.39932 0.39486,-24.79681 -0.3647,-25.84226 -0.75956,-1.04545 -24.46475,-7.0403 -24.46475,-8.33254 0,-1.29224 23.70519,-7.2871 24.46475,-8.33254 0.75956,-1.04545 -0.8643,-25.44294 0.3647,-25.84226 1.22899,-0.39933 14.25574,20.29314 15.48474,20.69246 1.22899,0.39933 23.93058,-8.6843 24.69015,-7.63885 0.75956,1.04544 -14.89466,19.82895 -14.89466,21.12119 z" />
      <path
         d="m 378.9569,980.34723 c 0,1.29224 15.65422,20.07577 14.89465,21.12117 -0.75956,1.0455 -23.46115,-8.03816 -24.69014,-7.63884 -1.229,0.39933 -14.25575,21.09184 -15.48474,20.69244 -1.229,-0.3993 0.39486,-24.79678 -0.3647,-25.84223 -0.75956,-1.04545 -24.46475,-7.0403 -24.46475,-8.33254 0,-1.29224 23.70519,-7.2871 24.46475,-8.33254 0.75956,-1.04545 -0.8643,-25.44294 0.36469,-25.84226 1.229,-0.39933 14.25575,20.29314 15.48475,20.69246 1.22899,0.39933 23.93058,-8.6843 24.69014,-7.63885 0.75956,1.04544 -14.89465,19.82895 -14.89465,21.12119 z"
         id="path2389"
         style="opacity:0.999;fill:#676c53;fill-opacity:1;fill-rule:evenodd;stroke:#000000;stroke-width:4.50600006;stroke-linecap:round;stroke-opacity:1;paint-order:markers stroke fill;stroke-miterlimit:4;stroke-dasharray:none" />
      <path
         style="opacity:0.999;fill:#ccff00;fill-opacity:1;fill-rule:evenodd;stroke:#000000;stroke-width:4.50600006;stroke-linecap:round;stroke-opacity:1;paint-order:markers stroke fill;stroke-miterlimit:4;stroke-dasharray:none"
         id="path2391"
         d="m 259.68787,571.09076 c 0,1.29224 15.65422,20.07574 14.89466,21.12119 -0.75956,1.04544 -23.46116,-8.03818 -24.69015,-7.63886 -1.229,0.39933 -14.25575,21.0918 -15.48474,20.69247 -1.229,-0.39932 0.39487,-24.79681 -0.3647,-25.84226 -0.75956,-1.04545 -24.46475,-7.0403 -24.46475,-8.33254 0,-1.29224 23.70519,-7.2871 24.46475,-8.33254 0.75957,-1.04545 -0.8643,-25.44294 0.3647,-25.84226 1.22899,-0.39933 14.25574,20.29314 15.48474,20.69246 1.22899,0.39933 23.93059,-8.6843 24.69015,-7.63885 0.75956,1.04545 -14.89466,19.82895 -14.89466,21.12119 z" />
      <path
         d="m 1033.7673,996.71747 c 0,1.29224 15.6542,20.07573 14.8946,21.12123 -0.7595,1.0454 -23.4611,-8.0382 -24.6901,-7.6389 -1.229,0.3993 -14.2557,21.0918 -15.4847,20.6925 -1.229,-0.3994 0.3948,-24.7968 -0.3647,-25.8423 -0.7596,-1.0454 -24.46479,-7.04029 -24.46479,-8.33253 0,-1.29224 23.70519,-7.2871 24.46479,-8.33254 0.7595,-1.04545 -0.8643,-25.44294 0.3647,-25.84226 1.229,-0.39933 14.2557,20.29314 15.4847,20.69246 1.229,0.39933 23.9306,-8.6843 24.6901,-7.63885 0.7596,1.04544 -14.8946,19.82895 -14.8946,21.12119 z"
         id="path2393"
         style="opacity:0.999;fill:#ccff00;fill-opacity:1;fill-rule:evenodd;stroke:#000000;stroke-width:4.50600006;stroke-linecap:round;stroke-opacity:1;paint-order:markers stroke fill;stroke-miterlimit:4;stroke-dasharray:none" />
      <path
         style="opacity:0.999;fill:#66ff00;fill-opacity:1;fill-rule:evenodd;stroke:#000000;stroke-width:4.50600006;stroke-linecap:round;stroke-opacity:1;paint-order:markers stroke fill;stroke-miterlimit:4;stroke-dasharray:none"
         id="path2395"
         d="m 1103.9256,856.40094 c 0,1.29224 15.6542,20.07574 14.8946,21.12119 -0.7595,1.04544 -23.4611,-8.03818 -24.6901,-7.63886 -1.229,0.39933 -14.2558,21.0918 -15.4848,20.69247 -1.229,-0.39932 0.3949,-24.79681 -0.3647,-25.84226 -0.7595,-1.04544 -24.4647,-7.0403 -24.4647,-8.33254 0,-1.29224 23.7052,-7.2871 24.4647,-8.33254 0.7596,-1.04545 -0.8643,-25.44294 0.3647,-25.84226 1.229,-0.39933 14.2558,20.29314 15.4848,20.69247 1.229,0.39932 23.9306,-8.68431 24.6901,-7.63886 0.7596,1.04545 -14.8946,19.82895 -14.8946,21.12119 z" />
      <path
         d="m 879.41915,830.67627 c 0,1.29224 15.65422,20.07574 14.89465,21.12119 -0.75956,1.04544 -23.46115,-8.03818 -24.69014,-7.63886 -1.229,0.39933 -14.25575,21.0918 -15.48475,20.69247 -1.22899,-0.39932 0.39487,-24.79681 -0.36469,-25.84226 -0.75956,-1.04544 -24.46475,-7.0403 -24.46475,-8.33254 0,-1.29224 23.70519,-7.2871 24.46475,-8.33254 0.75956,-1.04545 -0.8643,-25.44294 0.36469,-25.84226 1.229,-0.39933 14.25575,20.29314 15.48475,20.69246 1.22899,0.39933 23.93058,-8.6843 24.69014,-7.63885 0.75956,1.04545 -14.89465,19.82895 -14.89465,21.12119 z"
         id="path2397"
         style="opacity:0.999;fill:#ff8080;fill-opacity:1;fill-rule:evenodd;stroke:#000000;stroke-width:4.50600006;stroke-linecap:round;stroke-opacity:1;paint-order:markers stroke fill;stroke-miterlimit:4;stroke-dasharray:none" />
      <path
         style="opacity:0.999;fill:#ff8080;fill-opacity:1;fill-rule:evenodd;stroke:#000000;stroke-width:4.50600006;stroke-linecap:round;stroke-opacity:1;paint-order:markers stroke fill;stroke-miterlimit:4;stroke-dasharray:none"
         id="path2399"
         d="m 1555.277,877.44849 c 0,1.29224 15.6542,20.07574 14.8947,21.12119 -0.7596,1.04544 -23.4612,-8.03818 -24.6902,-7.63886 -1.229,0.39933 -14.2557,21.09179 -15.4847,20.69247 -1.229,-0.39933 0.3948,-24.79682 -0.3647,-25.84226 -0.7596,-1.04545 -24.4648,-7.0403 -24.4648,-8.33254 0,-1.29225 23.7052,-7.2871 24.4648,-8.33254 0.7595,-1.04545 -0.8643,-25.44294 0.3647,-25.84227 1.229,-0.39932 14.2557,20.29315 15.4847,20.69247 1.229,0.39933 23.9306,-8.6843 24.6902,-7.63885 0.7595,1.04544 -14.8947,19.82894 -14.8947,21.12119 z" />
      <path
         d="m 1733.0112,790.91998 c 0,1.29224 15.6543,20.07575 14.8947,21.12119 -0.7596,1.04545 -23.4611,-8.03818 -24.6901,-7.63885 -1.229,0.39932 -14.2558,21.09179 -15.4848,20.69247 -1.229,-0.39933 0.3949,-24.79682 -0.3647,-25.84227 -0.7595,-1.04544 -24.4647,-7.04029 -24.4647,-8.33254 0,-1.29224 23.7052,-7.28709 24.4647,-8.33254 0.7596,-1.04544 -0.8643,-25.44293 0.3647,-25.84226 1.229,-0.39932 14.2558,20.29314 15.4848,20.69247 1.229,0.39932 23.9305,-8.6843 24.6901,-7.63886 0.7596,1.04545 -14.8947,19.82895 -14.8947,21.12119 z"
         id="path2401"
         style="opacity:0.999;fill:#008080;fill-opacity:1;fill-rule:evenodd;stroke:#000000;stroke-width:4.50600006;stroke-linecap:round;stroke-opacity:1;paint-order:markers stroke fill;stroke-miterlimit:4;stroke-dasharray:none" />
    </g>
    <path
       id="path3536"
       d="m 1359.2969,689.98374 c 0,0 18.1901,-33.07292 55.8106,-8.68164"
       style="opacity:0.999;fill:none;fill-opacity:1;fill-rule:evenodd;stroke:#000000;stroke-width:0;stroke-linecap:round;stroke-miterlimit:4;stroke-dasharray:none;stroke-opacity:1;paint-order:markers stroke fill" />
  </g>
</svg>
